<svg width="11" height="13" viewBox="0 0 11 13" fill="none" xmlns="http://www.w3.org/2000/svg">
<path d="M4.74966 13H0V0H4.90798C6.79612 0 8.27379 0.586378 9.341 1.75913C10.4317 2.93189 10.977 4.52097 10.977 6.52639C10.977 8.50834 10.4199 10.0857 9.30582 11.2585C8.1917 12.4195 6.67298 13 4.74966 13ZM2.023 1.93505V11.065H4.83762C6.10419 11.065 7.08931 10.6369 7.79296 9.78078C8.50834 8.92467 8.86603 7.82228 8.86603 6.47361C8.86603 5.16013 8.50834 4.07533 7.79296 3.21921C7.08931 2.3631 6.11006 1.93505 4.85521 1.93505H2.023Z" fill="white"/>
</svg>
