<?xml version="1.0" encoding="utf-8"?>
<!-- Generator: Adobe Illustrator 21.1.0, SVG Export Plug-In . SVG Version: 6.00 Build 0)  -->
<svg version="1.1" id="Layer_1" xmlns="http://www.w3.org/2000/svg" xmlns:xlink="http://www.w3.org/1999/xlink" x="0px" y="0px"
	 viewBox="0 0 6.2 6.2" style="enable-background:new 0 0 6.2 6.2;" xml:space="preserve">
<style type="text/css">
	.st0{fill:#F3BA2F;}
</style>
<path class="st0" d="M2,2.7l1.1-1.1l1.1,1.1L4.8,2L3,0.3L1.3,2L2,2.7z"/>
<path class="st0" d="M0.2,3.1l0.7-0.7l0.7,0.7L0.9,3.8L0.2,3.1z"/>
<path class="st0" d="M2,3.6l1.1,1.1l1.1-1.1l0.7,0.6l0,0L3.1,5.9L1.3,4.2l0,0L2,3.6z"/>
<path class="st0" d="M4.6,3.1l0.7-0.7l0.7,0.7L5.3,3.8L4.6,3.1z"/>
<path class="st0" d="M3.7,3.1L3.1,2.4L2.6,2.9L2.5,3L2.4,3.1l0,0l0,0l0.7,0.7L3.7,3.1L3.7,3.1L3.7,3.1z"/>
</svg>
