<?xml version="1.0" encoding="utf-8"?>
<!-- Generator: Adobe Illustrator 21.1.0, SVG Export Plug-In . SVG Version: 6.00 Build 0)  -->
<svg version="1.1" id="Layer_1" xmlns="http://www.w3.org/2000/svg" xmlns:xlink="http://www.w3.org/1999/xlink" x="0px" y="0px"
	 viewBox="0 0 41 41" style="enable-background:new 0 0 41 41;" xml:space="preserve">
<style type="text/css">
	.st0{fill:#A588E7;}
	.st1{fill:#FFFFFF;}
</style>
<ellipse class="st0" cx="20.2" cy="20.5" rx="20.2" ry="20.4"/>
<path class="st1" d="M19.5,27h-4.7V14h4.9c1.9,0,3.4,0.6,4.4,1.8c1.1,1.2,1.6,2.8,1.6,4.8c0,2-0.6,3.6-1.7,4.7
	C22.9,26.4,21.4,27,19.5,27z M16.7,15.9v9.1h2.8c1.3,0,2.3-0.4,3-1.3c0.7-0.9,1.1-2,1.1-3.3c0-1.3-0.4-2.4-1.1-3.3
	c-0.7-0.9-1.7-1.3-2.9-1.3H16.7z"/>
</svg>
