<?xml version="1.0" encoding="utf-8"?>
<!-- Generator: Adobe Illustrator 21.1.0, SVG Export Plug-In . SVG Version: 6.00 Build 0)  -->
<svg version="1.1" id="Layer_1" xmlns="http://www.w3.org/2000/svg" xmlns:xlink="http://www.w3.org/1999/xlink" x="0px" y="0px"
	 viewBox="0 0 200 200" style="enable-background:new 0 0 200 200;" xml:space="preserve">
<style type="text/css">
	.st0{fill:#E2761B;stroke:#E2761B;stroke-width:0.1622;stroke-linecap:round;stroke-linejoin:round;}
	.st1{fill:#E4761B;stroke:#E4761B;stroke-width:0.1622;stroke-linecap:round;stroke-linejoin:round;}
	.st2{fill:#D7C1B3;stroke:#D7C1B3;stroke-width:0.1622;stroke-linecap:round;stroke-linejoin:round;}
	.st3{fill:#233447;stroke:#233447;stroke-width:0.1622;stroke-linecap:round;stroke-linejoin:round;}
	.st4{fill:#CD6116;stroke:#CD6116;stroke-width:0.1622;stroke-linecap:round;stroke-linejoin:round;}
	.st5{fill:#E4751F;stroke:#E4751F;stroke-width:0.1622;stroke-linecap:round;stroke-linejoin:round;}
	.st6{fill:#F6851B;stroke:#F6851B;stroke-width:0.1622;stroke-linecap:round;stroke-linejoin:round;}
	.st7{fill:#C0AD9E;stroke:#C0AD9E;stroke-width:0.1622;stroke-linecap:round;stroke-linejoin:round;}
	.st8{fill:#161616;stroke:#161616;stroke-width:0.1622;stroke-linecap:round;stroke-linejoin:round;}
	.st9{fill:#763D16;stroke:#763D16;stroke-width:0.1622;stroke-linecap:round;stroke-linejoin:round;}
</style>
<path class="st0" d="M111.1,72.4l-10.6,7.9l1.9-4.6L111.1,72.4z"/>
<path class="st1" d="M86.7,72.4l10.5,7.9l-1.9-4.7L86.7,72.4z"/>
<path class="st1" d="M107.3,90.6l-2.8,4.3l6,1.7l1.7-5.9L107.3,90.6z"/>
<path class="st1" d="M85.6,90.7l1.7,5.9l6-1.7l-2.8-4.3L85.6,90.7z"/>
<path class="st1" d="M93,83.3l-1.7,2.5l6,0.3l-0.2-6.4L93,83.3z"/>
<path class="st1" d="M104.8,83.3l-4.1-3.7l-0.1,6.5l6-0.3L104.8,83.3z"/>
<path class="st1" d="M93.3,94.9l3.6-1.7l-3.1-2.4L93.3,94.9z"/>
<path class="st1" d="M100.9,93.1l3.6,1.7l-0.5-4.2L100.9,93.1z"/>
<path class="st2" d="M104.5,94.9l-3.6-1.7l0.3,2.3v1L104.5,94.9z"/>
<path class="st2" d="M93.3,94.9l3.3,1.6v-1l0.3-2.3L93.3,94.9z"/>
<path class="st3" d="M96.7,89.2l-3-0.9l2.1-1L96.7,89.2z"/>
<path class="st3" d="M101.1,89.2l0.9-1.8l2.1,1L101.1,89.2z"/>
<path class="st4" d="M93.3,94.9l0.5-4.3l-3.3,0.1L93.3,94.9z"/>
<path class="st4" d="M104,90.6l0.5,4.3l2.8-4.2L104,90.6z"/>
<path class="st4" d="M106.5,85.8l-6,0.3l0.6,3.1l0.9-1.8l2.1,1L106.5,85.8z"/>
<path class="st4" d="M93.7,88.3l2.1-1l0.9,1.8l0.6-3.1l-6-0.3L93.7,88.3z"/>
<path class="st5" d="M91.3,85.8l2.5,4.9l-0.1-2.4L91.3,85.8z"/>
<path class="st5" d="M104.1,88.3l-0.1,2.4l2.5-4.9L104.1,88.3z"/>
<path class="st5" d="M97.3,86.1l-0.6,3.1l0.7,3.6l0.2-4.8L97.3,86.1z"/>
<path class="st5" d="M100.5,86.1l-0.3,1.9l0.1,4.8l0.7-3.6L100.5,86.1z"/>
<path class="st6" d="M101.1,89.2l-0.7,3.6l0.5,0.3l3.1-2.4l0.1-2.4L101.1,89.2z"/>
<path class="st6" d="M93.7,88.3l0.1,2.4l3.1,2.4l0.5-0.3l-0.7-3.6L93.7,88.3z"/>
<path class="st7" d="M101.1,96.5v-1l-0.3-0.2h-4l-0.2,0.2v1l-3.3-1.6l1.2,1l2.4,1.6h4.1l2.4-1.6l1.2-1L101.1,96.5z"/>
<path class="st8" d="M100.9,93.1l-0.5-0.3h-3l-0.5,0.3l-0.3,2.3l0.2-0.2h4l0.3,0.2L100.9,93.1z"/>
<path class="st9" d="M111.5,80.8l0.9-4.3l-1.3-4l-10.2,7.6l3.9,3.3l5.5,1.6l1.2-1.4l-0.5-0.4l0.8-0.8l-0.7-0.5l0.8-0.6L111.5,80.8z"
	/>
<path class="st9" d="M85.4,76.4l0.9,4.3l-0.6,0.4l0.8,0.6l-0.6,0.5l0.8,0.8l-0.5,0.4l1.2,1.4l5.5-1.6l3.9-3.3l-10.2-7.6L85.4,76.4z"
	/>
<path class="st6" d="M110.3,84.9l-5.5-1.6l1.7,2.5l-2.5,4.9h3.3h4.9L110.3,84.9z"/>
<path class="st6" d="M93,83.3l-5.5,1.6l-1.8,5.7h4.9h3.3l-2.5-4.9L93,83.3z"/>
<path class="st6" d="M100.5,86.1l0.3-6.1l1.6-4.4h-7.1l1.6,4.4l0.4,6.1l0.1,1.9v4.7h3V88L100.5,86.1z"/>
</svg>
