<?xml version="1.0" encoding="utf-8"?>
<!-- Generator: Adobe Illustrator 21.1.0, SVG Export Plug-In . SVG Version: 6.00 Build 0)  -->
<svg version="1.1" id="Layer_1" xmlns="http://www.w3.org/2000/svg" xmlns:xlink="http://www.w3.org/1999/xlink" x="0px" y="0px"
	 viewBox="0 0 683 328" style="enable-background:new 0 0 683 328;" xml:space="preserve">
<style type="text/css">
	.st0{fill:#FFFFFF;}
	.st1{fill:none;stroke:#686868;stroke-width:0.5333;}
	.st2{fill:#686868;}
	.st3{fill:none;stroke:#805AD5;stroke-width:1.6167;stroke-linecap:round;stroke-linejoin:round;}
	.st4{opacity:0.1;fill:#61E224;stroke:#805AD5;stroke-width:0.8083;enable-background:new    ;}
	.st5{fill:#FFFFFF;stroke:#61E224;stroke-width:3.2334;}
</style>
<path class="st0" d="M7.1,122.3c0,0.7-0.2,1.2-0.6,1.7c-0.4,0.4-1,0.7-1.7,0.8v1.2H3.9v-1.2c-0.6,0-1.1-0.2-1.6-0.5
	c-0.5-0.3-0.8-0.7-1.1-1.3l0.9-0.7c0.5,0.9,1.2,1.4,2.1,1.4c0.5,0,0.9-0.1,1.2-0.4c0.3-0.3,0.4-0.6,0.4-0.9c0-0.5-0.3-0.9-0.9-1.2
	c-0.1,0-0.4-0.2-0.9-0.4c-0.5-0.2-0.8-0.4-1-0.6c-0.9-0.6-1.3-1.3-1.3-2.1c0-0.6,0.2-1.2,0.6-1.6c0.4-0.4,1-0.7,1.7-0.8v-1.1h0.9
	v1.1c0.8,0.2,1.5,0.6,2,1.3l-0.8,0.8c-0.5-0.6-1.1-0.9-1.8-0.9c-0.4,0-0.7,0.1-1,0.3C3.1,117.4,3,117.7,3,118c0,0.5,0.3,0.8,0.8,1.2
	c0.2,0.1,0.5,0.3,1,0.5c0.5,0.2,0.9,0.4,1.1,0.6C6.7,120.8,7.1,121.5,7.1,122.3z M12.4,120.9l-2.5,2.7h3.8v1.1H8.2v-1l2.8-3
	c0.5-0.5,0.9-1,1.1-1.3c0.2-0.3,0.3-0.7,0.3-1.1c0-0.4-0.2-0.8-0.5-1.1c-0.3-0.3-0.7-0.4-1.1-0.4c-0.7,0-1.5,0.3-2.1,1L8,117
	c0.9-0.8,1.8-1.3,2.8-1.3c0.8,0,1.5,0.2,2,0.7s0.8,1.1,0.8,1.9C13.6,119.2,13.2,120,12.4,120.9z M14.6,116.9v-1.1h5.6v0.7l-3.5,8.2
	h-1.3l3.4-7.8H14.6z M23.8,119c0.9,0,1.6,0.3,2.1,0.8c0.6,0.6,0.9,1.3,0.9,2.1c0,0.9-0.3,1.6-0.9,2.1c-0.6,0.6-1.3,0.8-2.3,0.8
	c-1,0-2-0.4-2.8-1.1l0.6-0.9c0.7,0.6,1.5,0.9,2.2,0.9c0.6,0,1.1-0.2,1.4-0.5c0.4-0.4,0.6-0.8,0.6-1.3c0-0.5-0.2-1-0.5-1.3
	c-0.4-0.4-0.8-0.5-1.4-0.5c-0.6,0-1.2,0.2-1.6,0.7l-0.8-0.5l0.5-4.4h4.4v1.1h-3.5l-0.3,2.4C22.8,119.1,23.3,119,23.8,119z
	 M27.8,124.2c0-0.2,0.1-0.4,0.2-0.5c0.2-0.1,0.3-0.2,0.6-0.2c0.2,0,0.4,0.1,0.5,0.2c0.2,0.1,0.2,0.3,0.2,0.5c0,0.2-0.1,0.4-0.2,0.6
	c-0.1,0.1-0.3,0.2-0.5,0.2c-0.2,0-0.4-0.1-0.6-0.2C27.9,124.6,27.8,124.4,27.8,124.2z M33.8,124.9c-0.6,0-1.1-0.1-1.6-0.4
	c-0.5-0.3-0.8-0.6-1.1-1.1c-0.5-0.9-0.8-1.9-0.8-3.1c0-1.2,0.3-2.2,0.8-3.1c0.3-0.5,0.6-0.8,1.1-1.1c0.5-0.3,1-0.4,1.6-0.4
	c0.6,0,1.2,0.1,1.6,0.4c0.5,0.3,0.8,0.6,1.1,1.1c0.3,0.4,0.4,0.9,0.6,1.5c0.1,0.5,0.2,1.1,0.2,1.6c0,0.6-0.1,1.1-0.2,1.6
	c-0.1,0.5-0.3,1-0.6,1.5c-0.3,0.4-0.6,0.8-1.1,1.1C34.9,124.7,34.4,124.9,33.8,124.9z M36,120.3c0-1-0.2-1.8-0.6-2.5
	c-0.4-0.7-0.9-1-1.7-1c-0.8,0-1.3,0.3-1.7,1c-0.4,0.6-0.6,1.5-0.6,2.5c0,1,0.2,1.9,0.6,2.5c0.4,0.6,0.9,1,1.7,1s1.3-0.3,1.7-1
	C35.8,122.2,36,121.3,36,120.3z M41.9,124.9c-0.6,0-1.1-0.1-1.6-0.4c-0.5-0.3-0.8-0.6-1.1-1.1c-0.5-0.9-0.8-1.9-0.8-3.1
	c0-1.2,0.3-2.2,0.8-3.1c0.3-0.5,0.6-0.8,1.1-1.1c0.5-0.3,1-0.4,1.6-0.4c0.6,0,1.2,0.1,1.6,0.4c0.5,0.3,0.8,0.6,1.1,1.1
	c0.3,0.4,0.4,0.9,0.6,1.5c0.1,0.5,0.2,1.1,0.2,1.6c0,0.6-0.1,1.1-0.2,1.6c-0.1,0.5-0.3,1-0.6,1.5c-0.3,0.4-0.6,0.8-1.1,1.1
	C43.1,124.7,42.5,124.9,41.9,124.9z M44.2,120.3c0-1-0.2-1.8-0.6-2.5c-0.4-0.7-0.9-1-1.7-1c-0.8,0-1.3,0.3-1.7,1
	c-0.4,0.6-0.6,1.5-0.6,2.5c0,1,0.2,1.9,0.6,2.5c0.4,0.6,0.9,1,1.7,1c0.8,0,1.3-0.3,1.7-1C44,122.2,44.2,121.3,44.2,120.3z
	 M50.1,124.9c-0.6,0-1.1-0.1-1.6-0.4c-0.5-0.3-0.8-0.6-1.1-1.1c-0.5-0.9-0.8-1.9-0.8-3.1c0-1.2,0.3-2.2,0.8-3.1
	c0.3-0.5,0.6-0.8,1.1-1.1c0.5-0.3,1-0.4,1.6-0.4c0.6,0,1.2,0.1,1.6,0.4c0.5,0.3,0.8,0.6,1.1,1.1c0.3,0.4,0.4,0.9,0.6,1.5
	c0.1,0.5,0.2,1.1,0.2,1.6c0,0.6-0.1,1.1-0.2,1.6c-0.1,0.5-0.3,1-0.6,1.5c-0.3,0.4-0.6,0.8-1.1,1.1C51.2,124.7,50.7,124.9,50.1,124.9
	z M52.3,120.3c0-1-0.2-1.8-0.6-2.5c-0.4-0.7-0.9-1-1.7-1c-0.8,0-1.3,0.3-1.7,1c-0.4,0.6-0.6,1.5-0.6,2.5c0,1,0.2,1.9,0.6,2.5
	c0.4,0.6,0.9,1,1.7,1c0.8,0,1.3-0.3,1.7-1C52.1,122.2,52.3,121.3,52.3,120.3z"/>
<path class="st0" d="M7.1,203.4c0,0.7-0.2,1.2-0.6,1.7s-1,0.7-1.7,0.8v1.2H3.9v-1.2c-0.6,0-1.1-0.2-1.6-0.5
	c-0.5-0.3-0.8-0.7-1.1-1.3l0.9-0.7c0.5,0.9,1.2,1.4,2.1,1.4c0.5,0,0.9-0.1,1.2-0.4c0.3-0.3,0.4-0.6,0.4-0.9c0-0.5-0.3-0.9-0.9-1.2
	c-0.1,0-0.4-0.2-0.9-0.4c-0.5-0.2-0.8-0.4-1-0.6c-0.9-0.6-1.3-1.3-1.3-2.1c0-0.6,0.2-1.2,0.6-1.6s1-0.7,1.7-0.8v-1.1h0.9v1.1
	c0.8,0.2,1.5,0.6,2,1.3l-0.8,0.8c-0.5-0.6-1.1-0.9-1.8-0.9c-0.4,0-0.7,0.1-1,0.3c-0.3,0.2-0.4,0.5-0.4,0.9c0,0.5,0.3,0.8,0.8,1.2
	c0.2,0.1,0.5,0.3,1,0.5c0.5,0.2,0.9,0.4,1.1,0.6C6.7,201.8,7.1,202.5,7.1,203.4z M12.4,201.9l-2.5,2.7h3.8v1.1H8.2v-1l2.8-3
	c0.5-0.5,0.9-1,1.1-1.3c0.2-0.3,0.3-0.7,0.3-1.1c0-0.4-0.2-0.8-0.5-1.1c-0.3-0.3-0.7-0.4-1.1-0.4c-0.7,0-1.5,0.3-2.1,1L8,198
	c0.9-0.8,1.8-1.3,2.8-1.3c0.8,0,1.5,0.2,2,0.7c0.5,0.5,0.8,1.1,0.8,1.9C13.6,200.2,13.2,201,12.4,201.9z M14.6,198v-1.1h5.6v0.7
	l-3.5,8.2h-1.3l3.4-7.8H14.6z M23.8,200c0.9,0,1.6,0.3,2.1,0.8c0.6,0.6,0.9,1.3,0.9,2.1c0,0.9-0.3,1.6-0.9,2.1
	c-0.6,0.6-1.3,0.8-2.3,0.8c-1,0-2-0.4-2.8-1.1l0.6-0.9c0.7,0.6,1.5,0.9,2.2,0.9c0.6,0,1.1-0.2,1.4-0.5c0.4-0.4,0.6-0.8,0.6-1.3
	c0-0.5-0.2-1-0.5-1.3c-0.4-0.4-0.8-0.5-1.4-0.5c-0.6,0-1.2,0.2-1.6,0.7l-0.8-0.5l0.5-4.4h4.4v1.1h-3.5l-0.3,2.4
	C22.8,200.1,23.3,200,23.8,200z M27.8,205.2c0-0.2,0.1-0.4,0.2-0.5c0.2-0.1,0.3-0.2,0.6-0.2s0.4,0.1,0.5,0.2
	c0.2,0.1,0.2,0.3,0.2,0.5c0,0.2-0.1,0.4-0.2,0.6c-0.1,0.1-0.3,0.2-0.5,0.2s-0.4-0.1-0.6-0.2C27.9,205.6,27.8,205.4,27.8,205.2z
	 M33.8,205.9c-0.6,0-1.1-0.1-1.6-0.4c-0.5-0.3-0.8-0.6-1.1-1.1c-0.5-0.9-0.8-1.9-0.8-3.1s0.3-2.2,0.8-3.1c0.3-0.5,0.6-0.8,1.1-1.1
	c0.5-0.3,1-0.4,1.6-0.4c0.6,0,1.2,0.1,1.6,0.4s0.8,0.6,1.1,1.1c0.3,0.4,0.4,0.9,0.6,1.5c0.1,0.5,0.2,1.1,0.2,1.6
	c0,0.6-0.1,1.1-0.2,1.6c-0.1,0.5-0.3,1-0.6,1.5c-0.3,0.4-0.6,0.8-1.1,1.1C34.9,205.8,34.4,205.9,33.8,205.9z M36,201.3
	c0-1-0.2-1.8-0.6-2.5c-0.4-0.7-0.9-1-1.7-1c-0.8,0-1.3,0.3-1.7,1c-0.4,0.6-0.6,1.5-0.6,2.5c0,1,0.2,1.9,0.6,2.5c0.4,0.6,0.9,1,1.7,1
	s1.3-0.3,1.7-1C35.9,203.2,36,202.4,36,201.3z M41.9,205.9c-0.6,0-1.1-0.1-1.6-0.4c-0.5-0.3-0.8-0.6-1.1-1.1
	c-0.5-0.9-0.8-1.9-0.8-3.1s0.3-2.2,0.8-3.1c0.3-0.5,0.6-0.8,1.1-1.1c0.5-0.3,1-0.4,1.6-0.4c0.6,0,1.2,0.1,1.6,0.4s0.8,0.6,1.1,1.1
	c0.3,0.4,0.4,0.9,0.6,1.5c0.1,0.5,0.2,1.1,0.2,1.6c0,0.6-0.1,1.1-0.2,1.6c-0.1,0.5-0.3,1-0.6,1.5c-0.3,0.4-0.6,0.8-1.1,1.1
	C43.1,205.8,42.6,205.9,41.9,205.9z M44.2,201.3c0-1-0.2-1.8-0.6-2.5c-0.4-0.7-0.9-1-1.7-1c-0.8,0-1.3,0.3-1.7,1
	c-0.4,0.6-0.6,1.5-0.6,2.5c0,1,0.2,1.9,0.6,2.5c0.4,0.6,0.9,1,1.7,1c0.8,0,1.3-0.3,1.7-1C44,203.2,44.2,202.4,44.2,201.3z
	 M50.1,205.9c-0.6,0-1.1-0.1-1.6-0.4c-0.5-0.3-0.8-0.6-1.1-1.1c-0.5-0.9-0.8-1.9-0.8-3.1s0.3-2.2,0.8-3.1c0.3-0.5,0.6-0.8,1.1-1.1
	c0.5-0.3,1-0.4,1.6-0.4c0.6,0,1.2,0.1,1.6,0.4s0.8,0.6,1.1,1.1c0.3,0.4,0.4,0.9,0.6,1.5c0.1,0.5,0.2,1.1,0.2,1.6
	c0,0.6-0.1,1.1-0.2,1.6c-0.1,0.5-0.3,1-0.6,1.5c-0.3,0.4-0.6,0.8-1.1,1.1C51.2,205.8,50.7,205.9,50.1,205.9z M52.3,201.3
	c0-1-0.2-1.8-0.6-2.5c-0.4-0.7-0.9-1-1.7-1c-0.8,0-1.3,0.3-1.7,1c-0.4,0.6-0.6,1.5-0.6,2.5c0,1,0.2,1.9,0.6,2.5c0.4,0.6,0.9,1,1.7,1
	c0.8,0,1.3-0.3,1.7-1C52.1,203.2,52.3,202.4,52.3,201.3z"/>
<path class="st0" d="M7.1,244.3c0,0.7-0.2,1.2-0.6,1.7s-1,0.7-1.7,0.8v1.2H3.9v-1.2c-0.6,0-1.1-0.2-1.6-0.5
	c-0.5-0.3-0.8-0.7-1.1-1.3l0.9-0.7c0.5,0.9,1.2,1.4,2.1,1.4c0.5,0,0.9-0.1,1.2-0.4c0.3-0.3,0.4-0.6,0.4-0.9c0-0.5-0.3-0.9-0.9-1.2
	c-0.1,0-0.4-0.2-0.9-0.4c-0.5-0.2-0.8-0.4-1-0.6c-0.9-0.6-1.3-1.3-1.3-2.1c0-0.6,0.2-1.2,0.6-1.6c0.4-0.4,1-0.7,1.7-0.8v-1.1h0.9
	v1.1c0.8,0.2,1.5,0.6,2,1.3l-0.8,0.8c-0.5-0.6-1.1-0.9-1.8-0.9c-0.4,0-0.7,0.1-1,0.3C3.1,239.4,3,239.7,3,240c0,0.5,0.3,0.8,0.8,1.2
	c0.2,0.1,0.5,0.3,1,0.5c0.5,0.2,0.9,0.4,1.1,0.6C6.7,242.8,7.1,243.5,7.1,244.3z M12.4,242.9l-2.5,2.7h3.8v1.1H8.2v-1l2.8-3
	c0.5-0.5,0.9-1,1.1-1.3c0.2-0.3,0.3-0.7,0.3-1.1c0-0.4-0.2-0.8-0.5-1.1c-0.3-0.3-0.7-0.4-1.1-0.4c-0.7,0-1.5,0.3-2.1,1L8,239
	c0.9-0.8,1.8-1.3,2.8-1.3c0.8,0,1.5,0.2,2,0.7c0.5,0.5,0.8,1.1,0.8,1.9C13.6,241.2,13.2,242,12.4,242.9z M14.6,238.9v-1.1h5.6v0.7
	l-3.5,8.2h-1.3l3.4-7.8H14.6z M23.8,240.9c0.9,0,1.6,0.3,2.1,0.8c0.6,0.6,0.9,1.3,0.9,2.1c0,0.9-0.3,1.6-0.9,2.1
	c-0.6,0.6-1.3,0.8-2.3,0.8c-1,0-2-0.4-2.8-1.1l0.6-0.9c0.7,0.6,1.5,0.9,2.2,0.9c0.6,0,1.1-0.2,1.4-0.5c0.4-0.4,0.6-0.8,0.6-1.3
	c0-0.5-0.2-1-0.5-1.3c-0.4-0.4-0.8-0.5-1.4-0.5c-0.6,0-1.2,0.2-1.6,0.7l-0.8-0.5l0.5-4.4h4.4v1.1h-3.5l-0.3,2.4
	C22.8,241.1,23.3,240.9,23.8,240.9z M27.8,246.1c0-0.2,0.1-0.4,0.2-0.5c0.2-0.1,0.3-0.2,0.6-0.2s0.4,0.1,0.5,0.2
	c0.2,0.1,0.2,0.3,0.2,0.5c0,0.2-0.1,0.4-0.2,0.6c-0.1,0.1-0.3,0.2-0.5,0.2s-0.4-0.1-0.6-0.2C27.9,246.6,27.8,246.4,27.8,246.1z
	 M33.8,246.9c-0.6,0-1.1-0.1-1.6-0.4c-0.5-0.3-0.8-0.6-1.1-1.1c-0.5-0.9-0.8-1.9-0.8-3.1s0.3-2.2,0.8-3.1c0.3-0.5,0.6-0.8,1.1-1.1
	c0.5-0.3,1-0.4,1.6-0.4c0.6,0,1.2,0.1,1.6,0.4s0.8,0.6,1.1,1.1c0.3,0.4,0.4,0.9,0.6,1.5c0.1,0.5,0.2,1.1,0.2,1.6
	c0,0.6-0.1,1.1-0.2,1.6c-0.1,0.5-0.3,1-0.6,1.5c-0.3,0.4-0.6,0.8-1.1,1.1S34.4,246.9,33.8,246.9z M36,242.3c0-1-0.2-1.8-0.6-2.5
	c-0.4-0.7-0.9-1-1.7-1c-0.8,0-1.3,0.3-1.7,1c-0.4,0.6-0.6,1.5-0.6,2.5c0,1,0.2,1.9,0.6,2.5c0.4,0.6,0.9,1,1.7,1s1.3-0.3,1.7-1
	C35.9,244.1,36,243.3,36,242.3z M41.9,246.9c-0.6,0-1.1-0.1-1.6-0.4c-0.5-0.3-0.8-0.6-1.1-1.1c-0.5-0.9-0.8-1.9-0.8-3.1
	s0.3-2.2,0.8-3.1c0.3-0.5,0.6-0.8,1.1-1.1c0.5-0.3,1-0.4,1.6-0.4c0.6,0,1.2,0.1,1.6,0.4s0.8,0.6,1.1,1.1c0.3,0.4,0.4,0.9,0.6,1.5
	c0.1,0.5,0.2,1.1,0.2,1.6c0,0.6-0.1,1.1-0.2,1.6c-0.1,0.5-0.3,1-0.6,1.5c-0.3,0.4-0.6,0.8-1.1,1.1S42.6,246.9,41.9,246.9z
	 M44.2,242.3c0-1-0.2-1.8-0.6-2.5c-0.4-0.7-0.9-1-1.7-1c-0.8,0-1.3,0.3-1.7,1c-0.4,0.6-0.6,1.5-0.6,2.5c0,1,0.2,1.9,0.6,2.5
	c0.4,0.6,0.9,1,1.7,1c0.8,0,1.3-0.3,1.7-1C44,244.1,44.2,243.3,44.2,242.3z M50.1,246.9c-0.6,0-1.1-0.1-1.6-0.4
	c-0.5-0.3-0.8-0.6-1.1-1.1c-0.5-0.9-0.8-1.9-0.8-3.1s0.3-2.2,0.8-3.1c0.3-0.5,0.6-0.8,1.1-1.1c0.5-0.3,1-0.4,1.6-0.4
	c0.6,0,1.2,0.1,1.6,0.4s0.8,0.6,1.1,1.1c0.3,0.4,0.4,0.9,0.6,1.5c0.1,0.5,0.2,1.1,0.2,1.6c0,0.6-0.1,1.1-0.2,1.6
	c-0.1,0.5-0.3,1-0.6,1.5c-0.3,0.4-0.6,0.8-1.1,1.1S50.7,246.9,50.1,246.9z M52.3,242.3c0-1-0.2-1.8-0.6-2.5c-0.4-0.7-0.9-1-1.7-1
	c-0.8,0-1.3,0.3-1.7,1c-0.4,0.6-0.6,1.5-0.6,2.5c0,1,0.2,1.9,0.6,2.5c0.4,0.6,0.9,1,1.7,1c0.8,0,1.3-0.3,1.7-1
	C52.1,244.1,52.3,243.3,52.3,242.3z"/>
<path class="st0" d="M7.1,163.3c0,0.7-0.2,1.2-0.6,1.7s-1,0.7-1.7,0.8v1.2H3.9v-1.2c-0.6,0-1.1-0.2-1.6-0.5
	c-0.5-0.3-0.8-0.7-1.1-1.3l0.9-0.7c0.5,0.9,1.2,1.4,2.1,1.4c0.5,0,0.9-0.1,1.2-0.4c0.3-0.3,0.4-0.6,0.4-0.9c0-0.5-0.3-0.9-0.9-1.2
	c-0.1,0-0.4-0.2-0.9-0.4c-0.5-0.2-0.8-0.4-1-0.6c-0.9-0.6-1.3-1.3-1.3-2.1c0-0.6,0.2-1.2,0.6-1.6c0.4-0.4,1-0.7,1.7-0.8v-1.1h0.9
	v1.1c0.8,0.2,1.5,0.6,2,1.3l-0.8,0.8c-0.5-0.6-1.1-0.9-1.8-0.9c-0.4,0-0.7,0.1-1,0.3C3.1,158.4,3,158.6,3,159c0,0.5,0.3,0.8,0.8,1.2
	c0.2,0.1,0.5,0.3,1,0.5c0.5,0.2,0.9,0.4,1.1,0.6C6.7,161.8,7.1,162.4,7.1,163.3z M12.4,161.9l-2.5,2.7h3.8v1.1H8.2v-1l2.8-3
	c0.5-0.5,0.9-1,1.1-1.3c0.2-0.3,0.3-0.7,0.3-1.1c0-0.4-0.2-0.8-0.5-1.1c-0.3-0.3-0.7-0.4-1.1-0.4c-0.7,0-1.5,0.3-2.1,1L8,157.9
	c0.9-0.8,1.8-1.3,2.8-1.3c0.8,0,1.5,0.2,2,0.7c0.5,0.5,0.8,1.1,0.8,1.9C13.6,160.1,13.2,161,12.4,161.9z M14.6,157.9v-1.1h5.6v0.7
	l-3.5,8.2h-1.3l3.4-7.8H14.6z M23.8,159.9c0.9,0,1.6,0.3,2.1,0.8c0.6,0.6,0.9,1.3,0.9,2.1c0,0.9-0.3,1.6-0.9,2.1
	c-0.6,0.6-1.3,0.8-2.3,0.8c-1,0-2-0.4-2.8-1.1l0.6-0.9c0.7,0.6,1.5,0.9,2.2,0.9c0.6,0,1.1-0.2,1.4-0.5c0.4-0.4,0.6-0.8,0.6-1.3
	c0-0.5-0.2-1-0.5-1.3c-0.4-0.4-0.8-0.5-1.4-0.5c-0.6,0-1.2,0.2-1.6,0.7l-0.8-0.5l0.5-4.4h4.4v1.1h-3.5l-0.3,2.4
	C22.8,160,23.3,159.9,23.8,159.9z M27.8,165.1c0-0.2,0.1-0.4,0.2-0.5c0.2-0.1,0.3-0.2,0.6-0.2s0.4,0.1,0.5,0.2
	c0.2,0.1,0.2,0.3,0.2,0.5c0,0.2-0.1,0.4-0.2,0.6c-0.1,0.1-0.3,0.2-0.5,0.2s-0.4-0.1-0.6-0.2C27.9,165.5,27.8,165.3,27.8,165.1z
	 M33.8,165.8c-0.6,0-1.1-0.1-1.6-0.4c-0.5-0.3-0.8-0.6-1.1-1.1c-0.5-0.9-0.8-1.9-0.8-3.1s0.3-2.2,0.8-3.1c0.3-0.5,0.6-0.8,1.1-1.1
	c0.5-0.3,1-0.4,1.6-0.4c0.6,0,1.2,0.1,1.6,0.4s0.8,0.6,1.1,1.1c0.3,0.4,0.4,0.9,0.6,1.5c0.1,0.5,0.2,1.1,0.2,1.6
	c0,0.6-0.1,1.1-0.2,1.6c-0.1,0.5-0.3,1-0.6,1.5c-0.3,0.4-0.6,0.8-1.1,1.1C34.9,165.7,34.4,165.8,33.8,165.8z M36,161.3
	c0-1-0.2-1.8-0.6-2.5c-0.4-0.7-0.9-1-1.7-1c-0.8,0-1.3,0.3-1.7,1c-0.4,0.6-0.6,1.5-0.6,2.5c0,1,0.2,1.9,0.6,2.5c0.4,0.6,0.9,1,1.7,1
	s1.3-0.3,1.7-1C35.9,163.1,36,162.3,36,161.3z M41.9,165.8c-0.6,0-1.1-0.1-1.6-0.4c-0.5-0.3-0.8-0.6-1.1-1.1
	c-0.5-0.9-0.8-1.9-0.8-3.1s0.3-2.2,0.8-3.1c0.3-0.5,0.6-0.8,1.1-1.1c0.5-0.3,1-0.4,1.6-0.4c0.6,0,1.2,0.1,1.6,0.4s0.8,0.6,1.1,1.1
	c0.3,0.4,0.4,0.9,0.6,1.5c0.1,0.5,0.2,1.1,0.2,1.6c0,0.6-0.1,1.1-0.2,1.6c-0.1,0.5-0.3,1-0.6,1.5c-0.3,0.4-0.6,0.8-1.1,1.1
	C43.1,165.7,42.6,165.8,41.9,165.8z M44.2,161.3c0-1-0.2-1.8-0.6-2.5c-0.4-0.7-0.9-1-1.7-1c-0.8,0-1.3,0.3-1.7,1
	c-0.4,0.6-0.6,1.5-0.6,2.5c0,1,0.2,1.9,0.6,2.5c0.4,0.6,0.9,1,1.7,1c0.8,0,1.3-0.3,1.7-1C44,163.1,44.2,162.3,44.2,161.3z
	 M50.1,165.8c-0.6,0-1.1-0.1-1.6-0.4c-0.5-0.3-0.8-0.6-1.1-1.1c-0.5-0.9-0.8-1.9-0.8-3.1s0.3-2.2,0.8-3.1c0.3-0.5,0.6-0.8,1.1-1.1
	c0.5-0.3,1-0.4,1.6-0.4c0.6,0,1.2,0.1,1.6,0.4s0.8,0.6,1.1,1.1c0.3,0.4,0.4,0.9,0.6,1.5c0.1,0.5,0.2,1.1,0.2,1.6
	c0,0.6-0.1,1.1-0.2,1.6c-0.1,0.5-0.3,1-0.6,1.5c-0.3,0.4-0.6,0.8-1.1,1.1C51.2,165.7,50.7,165.8,50.1,165.8z M52.3,161.3
	c0-1-0.2-1.8-0.6-2.5c-0.4-0.7-0.9-1-1.7-1c-0.8,0-1.3,0.3-1.7,1c-0.4,0.6-0.6,1.5-0.6,2.5c0,1,0.2,1.9,0.6,2.5c0.4,0.6,0.9,1,1.7,1
	c0.8,0,1.3-0.3,1.7-1C52.1,163.1,52.3,162.3,52.3,161.3z"/>
<path class="st0" d="M7.1,81.4c0,0.7-0.2,1.2-0.6,1.7c-0.4,0.4-1,0.7-1.7,0.8v1.2H3.9v-1.2c-0.6,0-1.1-0.2-1.6-0.5
	c-0.5-0.3-0.8-0.7-1.1-1.3l0.9-0.7c0.5,0.9,1.2,1.4,2.1,1.4c0.5,0,0.9-0.1,1.2-0.4c0.3-0.3,0.4-0.6,0.4-0.9c0-0.5-0.3-0.9-0.9-1.2
	c-0.1,0-0.4-0.2-0.9-0.4c-0.5-0.2-0.8-0.4-1-0.6c-0.9-0.6-1.3-1.3-1.3-2.1c0-0.6,0.2-1.2,0.6-1.6s1-0.7,1.7-0.8v-1.1h0.9v1.1
	c0.8,0.2,1.5,0.6,2,1.3l-0.8,0.8c-0.5-0.6-1.1-0.9-1.8-0.9c-0.4,0-0.7,0.1-1,0.3C3.1,76.4,3,76.7,3,77.1c0,0.5,0.3,0.8,0.8,1.2
	c0.2,0.1,0.5,0.3,1,0.5c0.5,0.2,0.9,0.4,1.1,0.6C6.7,79.8,7.1,80.5,7.1,81.4z M12.4,79.9l-2.5,2.7h3.8v1.1H8.2v-1l2.8-3
	c0.5-0.5,0.9-1,1.1-1.3c0.2-0.3,0.3-0.7,0.3-1.1c0-0.4-0.2-0.8-0.5-1.1c-0.3-0.3-0.7-0.4-1.1-0.4c-0.7,0-1.5,0.3-2.1,1L8,76
	c0.9-0.8,1.8-1.3,2.8-1.3c0.8,0,1.5,0.2,2,0.7c0.5,0.5,0.8,1.1,0.8,1.9C13.6,78.2,13.2,79,12.4,79.9z M14.6,76v-1.1h5.6v0.7
	l-3.5,8.2h-1.3l3.4-7.8H14.6z M23.8,78c0.9,0,1.6,0.3,2.1,0.8c0.6,0.6,0.9,1.3,0.9,2.1c0,0.9-0.3,1.6-0.9,2.1
	c-0.6,0.6-1.3,0.8-2.3,0.8c-1,0-2-0.4-2.8-1.1l0.6-0.9c0.7,0.6,1.5,0.9,2.2,0.9c0.6,0,1.1-0.2,1.4-0.5c0.4-0.4,0.6-0.8,0.6-1.3
	c0-0.5-0.2-1-0.5-1.3c-0.4-0.4-0.8-0.5-1.4-0.5c-0.6,0-1.2,0.2-1.6,0.7l-0.8-0.5l0.5-4.4h4.4V76h-3.5l-0.3,2.4
	C22.8,78.1,23.3,78,23.8,78z M27.8,83.2c0-0.2,0.1-0.4,0.2-0.5c0.2-0.1,0.3-0.2,0.6-0.2c0.2,0,0.4,0.1,0.5,0.2
	c0.2,0.1,0.2,0.3,0.2,0.5c0,0.2-0.1,0.4-0.2,0.6C29,83.9,28.8,84,28.6,84c-0.2,0-0.4-0.1-0.6-0.2C27.9,83.6,27.8,83.4,27.8,83.2z
	 M33.8,83.9c-0.6,0-1.1-0.1-1.6-0.4c-0.5-0.3-0.8-0.6-1.1-1.1c-0.5-0.9-0.8-1.9-0.8-3.1s0.3-2.2,0.8-3.1c0.3-0.5,0.6-0.8,1.1-1.1
	c0.5-0.3,1-0.4,1.6-0.4c0.6,0,1.2,0.1,1.6,0.4c0.5,0.3,0.8,0.6,1.1,1.1c0.3,0.4,0.4,0.9,0.6,1.5c0.1,0.5,0.2,1.1,0.2,1.6
	s-0.1,1.1-0.2,1.6c-0.1,0.5-0.3,1-0.6,1.5c-0.3,0.4-0.6,0.8-1.1,1.1C34.9,83.8,34.4,83.9,33.8,83.9z M36,79.3c0-1-0.2-1.8-0.6-2.5
	c-0.4-0.7-0.9-1-1.7-1c-0.8,0-1.3,0.3-1.7,1c-0.4,0.6-0.6,1.5-0.6,2.5c0,1,0.2,1.9,0.6,2.5c0.4,0.6,0.9,1,1.7,1s1.3-0.3,1.7-1
	C35.8,81.2,36,80.4,36,79.3z M41.9,83.9c-0.6,0-1.1-0.1-1.6-0.4c-0.5-0.3-0.8-0.6-1.1-1.1c-0.5-0.9-0.8-1.9-0.8-3.1s0.3-2.2,0.8-3.1
	c0.3-0.5,0.6-0.8,1.1-1.1c0.5-0.3,1-0.4,1.6-0.4c0.6,0,1.2,0.1,1.6,0.4c0.5,0.3,0.8,0.6,1.1,1.1c0.3,0.4,0.4,0.9,0.6,1.5
	c0.1,0.5,0.2,1.1,0.2,1.6s-0.1,1.1-0.2,1.6c-0.1,0.5-0.3,1-0.6,1.5c-0.3,0.4-0.6,0.8-1.1,1.1C43.1,83.8,42.5,83.9,41.9,83.9z
	 M44.2,79.3c0-1-0.2-1.8-0.6-2.5c-0.4-0.7-0.9-1-1.7-1c-0.8,0-1.3,0.3-1.7,1c-0.4,0.6-0.6,1.5-0.6,2.5c0,1,0.2,1.9,0.6,2.5
	c0.4,0.6,0.9,1,1.7,1c0.8,0,1.3-0.3,1.7-1C44,81.2,44.2,80.4,44.2,79.3z M50.1,83.9c-0.6,0-1.1-0.1-1.6-0.4
	c-0.5-0.3-0.8-0.6-1.1-1.1c-0.5-0.9-0.8-1.9-0.8-3.1s0.3-2.2,0.8-3.1c0.3-0.5,0.6-0.8,1.1-1.1c0.5-0.3,1-0.4,1.6-0.4
	c0.6,0,1.2,0.1,1.6,0.4c0.5,0.3,0.8,0.6,1.1,1.1c0.3,0.4,0.4,0.9,0.6,1.5c0.1,0.5,0.2,1.1,0.2,1.6s-0.1,1.1-0.2,1.6
	c-0.1,0.5-0.3,1-0.6,1.5c-0.3,0.4-0.6,0.8-1.1,1.1C51.2,83.8,50.7,83.9,50.1,83.9z M52.3,79.3c0-1-0.2-1.8-0.6-2.5
	c-0.4-0.7-0.9-1-1.7-1c-0.8,0-1.3,0.3-1.7,1c-0.4,0.6-0.6,1.5-0.6,2.5c0,1,0.2,1.9,0.6,2.5c0.4,0.6,0.9,1,1.7,1c0.8,0,1.3-0.3,1.7-1
	C52.1,81.2,52.3,80.4,52.3,79.3z"/>
<path class="st1" d="M67.6,245c0-74.8,0-102.9,0-177.6"/>
<path class="st1" d="M67.2,244.7c66,0,503.1,0,569.1,0"/>
<path class="st0" d="M73.4,278.1h-1.2v-8.9h0.6l3.8,5.6l3.8-5.6H81v8.9h-1.2v-6l-3,4.5h-0.3l-3-4.5V278.1z M88,272.6v-0.9h1.1v6.4
	H88v-0.9c-0.6,0.7-1.3,1.1-2.3,1.1c-0.9,0-1.7-0.3-2.3-1s-0.9-1.5-0.9-2.4c0-1,0.3-1.8,0.9-2.4c0.6-0.6,1.4-0.9,2.3-0.9
	C86.7,271.5,87.4,271.9,88,272.6z M88.1,274.9c0-0.6-0.2-1.2-0.6-1.6c-0.4-0.4-0.9-0.7-1.6-0.7c-0.7,0-1.2,0.2-1.6,0.7
	c-0.4,0.4-0.6,1-0.6,1.6c0,0.6,0.2,1.2,0.6,1.6c0.4,0.4,0.9,0.7,1.6,0.7c0.7,0,1.2-0.2,1.6-0.7C87.9,276.1,88.1,275.6,88.1,274.9z
	 M93.5,276.5l1.7-4.8h1.3l-2.7,7.2c-0.3,0.7-0.6,1.2-0.9,1.5c-0.4,0.3-0.8,0.5-1.3,0.5c-0.4,0-0.8-0.1-1-0.3l0.1-1
	c0.3,0.1,0.5,0.2,0.8,0.2c0.5,0,1-0.4,1.3-1.1l0.2-0.6l-2.8-6.4h1.3L93.5,276.5z M104.4,274.3l-2.5,2.7h3.8v1.1h-5.5v-1l2.8-3
	c0.5-0.5,0.9-1,1.1-1.3c0.2-0.3,0.3-0.7,0.3-1.1c0-0.4-0.2-0.8-0.5-1.1c-0.3-0.3-0.7-0.4-1.1-0.4c-0.7,0-1.5,0.3-2.1,1l-0.7-0.9
	c0.9-0.8,1.8-1.3,2.8-1.3c0.8,0,1.5,0.2,2,0.7c0.5,0.5,0.8,1.1,0.8,1.9C105.6,272.6,105.2,273.4,104.4,274.3z M110.4,278.3
	c-0.6,0-1.1-0.1-1.6-0.4c-0.5-0.3-0.8-0.6-1.1-1.1c-0.5-0.9-0.8-1.9-0.8-3.1s0.3-2.2,0.8-3.1c0.3-0.5,0.6-0.8,1.1-1.1
	c0.5-0.3,1-0.4,1.6-0.4c0.6,0,1.2,0.1,1.6,0.4c0.5,0.3,0.8,0.6,1.1,1.1c0.3,0.4,0.4,0.9,0.6,1.5c0.1,0.5,0.2,1.1,0.2,1.6
	c0,0.6-0.1,1.1-0.2,1.6c-0.1,0.5-0.3,1-0.6,1.5c-0.3,0.4-0.6,0.8-1.1,1.1S111,278.3,110.4,278.3z M112.7,273.7c0-1-0.2-1.8-0.6-2.5
	c-0.4-0.7-0.9-1-1.7-1c-0.8,0-1.3,0.3-1.7,1c-0.4,0.6-0.6,1.5-0.6,2.5c0,1,0.2,1.9,0.6,2.5c0.4,0.6,0.9,1,1.7,1c0.8,0,1.3-0.3,1.7-1
	C112.5,275.5,112.7,274.7,112.7,273.7z M119.1,274.3l-2.5,2.7h3.8v1.1h-5.5v-1l2.8-3c0.5-0.5,0.9-1,1.1-1.3c0.2-0.3,0.3-0.7,0.3-1.1
	c0-0.4-0.2-0.8-0.5-1.1c-0.3-0.3-0.7-0.4-1.1-0.4c-0.7,0-1.5,0.3-2.1,1l-0.7-0.9c0.9-0.8,1.8-1.3,2.8-1.3c0.8,0,1.5,0.2,2,0.7
	c0.5,0.5,0.8,1.1,0.8,1.9C120.4,272.6,119.9,273.4,119.1,274.3z M121.1,271.4l2.5-2.1h0.9v8.9h-1.2v-7.3l-1.6,1.3L121.1,271.4z"/>
<path class="st0" d="M148.7,278.3c-1,0-1.9-0.4-2.5-1.1l0.7-0.9c0.5,0.6,1.1,0.9,1.8,0.9c0.5,0,1-0.2,1.3-0.5
	c0.3-0.3,0.5-0.8,0.5-1.4v-5.9h1.2v6c0,1-0.3,1.7-0.8,2.2C150.3,278,149.6,278.3,148.7,278.3z M156.2,278.3c-0.8,0-1.5-0.2-2-0.7
	c-0.5-0.5-0.7-1.2-0.7-2v-3.8h1.2v3.8c0,0.5,0.1,0.9,0.4,1.3c0.3,0.3,0.7,0.5,1.2,0.5c0.5,0,0.9-0.2,1.2-0.5
	c0.3-0.3,0.4-0.7,0.4-1.3v-3.8h1.1v3.8c0,0.9-0.2,1.5-0.7,2C157.7,278,157,278.3,156.2,278.3z M161.8,278.1h-1.2v-6.4h1.1v0.9
	c0.4-0.7,1.1-1.1,2-1.1c0.7,0,1.3,0.2,1.8,0.7c0.5,0.5,0.7,1.1,0.7,2v3.9h-1.1v-3.6c0-0.6-0.2-1.1-0.5-1.4c-0.3-0.3-0.7-0.5-1.2-0.5
	c-0.5,0-0.9,0.2-1.3,0.6c-0.3,0.4-0.5,0.8-0.5,1.4V278.1z M174.9,274.3l-2.5,2.7h3.8v1.1h-5.5v-1l2.8-3c0.5-0.5,0.9-1,1.1-1.3
	c0.2-0.3,0.3-0.7,0.3-1.1c0-0.4-0.2-0.8-0.5-1.1c-0.3-0.3-0.7-0.4-1.1-0.4c-0.7,0-1.5,0.3-2.1,1l-0.7-0.9c0.9-0.8,1.8-1.3,2.8-1.3
	c0.8,0,1.5,0.2,2,0.7c0.5,0.5,0.8,1.1,0.8,1.9C176.1,272.6,175.7,273.4,174.9,274.3z M180.9,278.3c-0.6,0-1.1-0.1-1.6-0.4
	c-0.5-0.3-0.8-0.6-1.1-1.1c-0.5-0.9-0.8-1.9-0.8-3.1s0.3-2.2,0.8-3.1c0.3-0.5,0.6-0.8,1.1-1.1c0.5-0.3,1-0.4,1.6-0.4
	c0.6,0,1.2,0.1,1.6,0.4c0.5,0.3,0.8,0.6,1.1,1.1c0.3,0.4,0.4,0.9,0.6,1.5c0.1,0.5,0.2,1.1,0.2,1.6c0,0.6-0.1,1.1-0.2,1.6
	c-0.1,0.5-0.3,1-0.6,1.5c-0.3,0.4-0.6,0.8-1.1,1.1S181.5,278.3,180.9,278.3z M183.2,273.7c0-1-0.2-1.8-0.6-2.5c-0.4-0.7-0.9-1-1.7-1
	c-0.8,0-1.3,0.3-1.7,1c-0.4,0.6-0.6,1.5-0.6,2.5c0,1,0.2,1.9,0.6,2.5c0.4,0.6,0.9,1,1.7,1s1.3-0.3,1.7-1
	C183,275.5,183.2,274.7,183.2,273.7z M189.6,274.3l-2.5,2.7h3.8v1.1h-5.5v-1l2.8-3c0.5-0.5,0.9-1,1.1-1.3c0.2-0.3,0.3-0.7,0.3-1.1
	c0-0.4-0.2-0.8-0.5-1.1c-0.3-0.3-0.7-0.4-1.1-0.4c-0.7,0-1.5,0.3-2.1,1l-0.7-0.9c0.9-0.8,1.8-1.3,2.8-1.3c0.8,0,1.5,0.2,2,0.7
	c0.5,0.5,0.8,1.1,0.8,1.9C190.9,272.6,190.5,273.4,189.6,274.3z M191.6,271.4l2.5-2.1h0.9v8.9h-1.2v-7.3l-1.6,1.3L191.6,271.4z"/>
<path class="st0" d="M223.7,278.3c-1,0-1.9-0.4-2.5-1.1l0.7-0.9c0.5,0.6,1.1,0.9,1.8,0.9c0.5,0,1-0.2,1.3-0.5
	c0.3-0.3,0.5-0.8,0.5-1.4v-5.9h1.2v6c0,1-0.3,1.7-0.8,2.2C225.3,278,224.5,278.3,223.7,278.3z M231.1,278.3c-0.8,0-1.5-0.2-2-0.7
	c-0.5-0.5-0.7-1.2-0.7-2v-3.8h1.2v3.8c0,0.5,0.1,0.9,0.4,1.3c0.3,0.3,0.7,0.5,1.2,0.5s0.9-0.2,1.2-0.5c0.3-0.3,0.4-0.7,0.4-1.3v-3.8
	h1.1v3.8c0,0.9-0.2,1.5-0.7,2C232.7,278,232,278.3,231.1,278.3z M236.8,269v9.1h-1.2V269H236.8z M245.4,274.3l-2.5,2.7h3.8v1.1h-5.5
	v-1l2.8-3c0.5-0.5,0.9-1,1.1-1.3c0.2-0.3,0.3-0.7,0.3-1.1c0-0.4-0.2-0.8-0.5-1.1c-0.3-0.3-0.7-0.4-1.1-0.4c-0.7,0-1.5,0.3-2.1,1
	l-0.7-0.9c0.9-0.8,1.8-1.3,2.8-1.3c0.8,0,1.5,0.2,2,0.7c0.5,0.5,0.8,1.1,0.8,1.9C246.6,272.6,246.2,273.4,245.4,274.3z M251.4,278.3
	c-0.6,0-1.1-0.1-1.6-0.4c-0.5-0.3-0.8-0.6-1.1-1.1c-0.5-0.9-0.8-1.9-0.8-3.1s0.3-2.2,0.8-3.1c0.3-0.5,0.6-0.8,1.1-1.1
	c0.5-0.3,1-0.4,1.6-0.4c0.6,0,1.2,0.1,1.6,0.4c0.5,0.3,0.8,0.6,1.1,1.1c0.3,0.4,0.4,0.9,0.6,1.5c0.1,0.5,0.2,1.1,0.2,1.6
	c0,0.6-0.1,1.1-0.2,1.6c-0.1,0.5-0.3,1-0.6,1.5c-0.3,0.4-0.6,0.8-1.1,1.1C252.6,278.1,252,278.3,251.4,278.3z M253.7,273.7
	c0-1-0.2-1.8-0.6-2.5c-0.4-0.7-0.9-1-1.7-1c-0.8,0-1.3,0.3-1.7,1c-0.4,0.6-0.6,1.5-0.6,2.5c0,1,0.2,1.9,0.6,2.5c0.4,0.6,0.9,1,1.7,1
	s1.3-0.3,1.7-1C253.5,275.5,253.7,274.7,253.7,273.7z M260.1,274.3l-2.5,2.7h3.8v1.1h-5.5v-1l2.8-3c0.5-0.5,0.9-1,1.1-1.3
	c0.2-0.3,0.3-0.7,0.3-1.1c0-0.4-0.2-0.8-0.5-1.1c-0.3-0.3-0.7-0.4-1.1-0.4c-0.7,0-1.5,0.3-2.1,1l-0.7-0.9c0.9-0.8,1.8-1.3,2.8-1.3
	c0.8,0,1.5,0.2,2,0.7c0.5,0.5,0.8,1.1,0.8,1.9C261.4,272.6,260.9,273.4,260.1,274.3z M262.1,271.4l2.5-2.1h0.9v8.9h-1.2v-7.3
	l-1.6,1.3L262.1,271.4z"/>
<path class="st0" d="M367,278.3c-0.7,0-1.3-0.2-1.8-0.5c-0.5-0.3-0.9-0.8-1.2-1.4l0.9-0.7c0.5,0.9,1.2,1.4,2.1,1.4
	c0.5,0,0.9-0.1,1.2-0.4c0.3-0.3,0.4-0.6,0.4-1c0-0.5-0.3-0.9-0.9-1.2c-0.1-0.1-0.4-0.2-0.9-0.4c-0.4-0.2-0.7-0.4-1-0.5
	c-0.9-0.6-1.3-1.3-1.3-2.1c0-0.7,0.2-1.2,0.7-1.7c0.5-0.5,1.1-0.7,1.9-0.7c1.1,0,2,0.4,2.6,1.3l-0.8,0.8c-0.5-0.6-1.1-0.9-1.8-0.9
	c-0.4,0-0.7,0.1-1,0.3c-0.3,0.2-0.4,0.5-0.4,0.9c0,0.5,0.3,0.8,0.8,1.1c0.2,0.1,0.6,0.3,1,0.5c0.5,0.2,0.9,0.4,1.1,0.6
	c0.9,0.5,1.3,1.2,1.3,2.1c0,0.8-0.3,1.4-0.8,1.8C368.6,278,367.9,278.3,367,278.3z M377.3,274.8c0,0.1,0,0.3,0,0.6h-5.1
	c0.1,0.6,0.3,1,0.7,1.3c0.4,0.3,0.9,0.5,1.5,0.5c0.4,0,0.8-0.1,1.2-0.2c0.4-0.1,0.8-0.3,1.1-0.5l0.5,0.9c-0.3,0.3-0.8,0.5-1.2,0.6
	c-0.5,0.2-1,0.3-1.5,0.3c-0.6,0-1.1-0.1-1.6-0.3c-0.4-0.2-0.8-0.5-1.1-0.8c-0.3-0.3-0.5-0.7-0.6-1.1c-0.1-0.4-0.2-0.8-0.2-1.2
	c0-1,0.3-1.8,0.9-2.4c0.6-0.6,1.4-0.9,2.4-0.9c0.9,0,1.7,0.3,2.2,0.9C377,273,377.3,273.8,377.3,274.8z M372.2,274.4h4
	c0-0.6-0.2-1-0.6-1.3c-0.4-0.3-0.8-0.5-1.3-0.5c-0.5,0-1,0.2-1.3,0.5C372.5,273.4,372.3,273.9,372.2,274.4z M382.1,271.5
	c0.9,0,1.7,0.3,2.3,1c0.6,0.7,0.9,1.5,0.9,2.4c0,0.9-0.3,1.7-0.9,2.4c-0.6,0.6-1.4,1-2.3,1c-0.9,0-1.7-0.4-2.3-1.1v3.6h-1.2v-9.1
	h1.2v1C380.4,271.9,381.2,271.5,382.1,271.5z M384.2,274.9c0-0.6-0.2-1.2-0.6-1.6c-0.4-0.4-0.9-0.7-1.6-0.7s-1.2,0.2-1.6,0.7
	c-0.4,0.4-0.6,1-0.6,1.6c0,0.7,0.2,1.2,0.6,1.7c0.4,0.4,0.9,0.7,1.6,0.7s1.2-0.2,1.6-0.7C384,276.1,384.2,275.6,384.2,274.9z
	 M393.6,274.3l-2.5,2.7h3.8v1.1h-5.5v-1l2.8-3c0.5-0.5,0.9-1,1.1-1.3c0.2-0.3,0.3-0.7,0.3-1.1c0-0.4-0.2-0.8-0.5-1.1
	c-0.3-0.3-0.7-0.4-1.1-0.4c-0.7,0-1.5,0.3-2.1,1l-0.7-0.9c0.9-0.8,1.8-1.3,2.8-1.3c0.8,0,1.5,0.2,2,0.7c0.5,0.5,0.8,1.1,0.8,1.9
	C394.8,272.6,394.4,273.4,393.6,274.3z M399.6,278.3c-0.6,0-1.1-0.1-1.6-0.4c-0.5-0.3-0.8-0.6-1.1-1.1c-0.5-0.9-0.8-1.9-0.8-3.1
	s0.3-2.2,0.8-3.1c0.3-0.5,0.6-0.8,1.1-1.1c0.5-0.3,1-0.4,1.6-0.4c0.6,0,1.2,0.1,1.6,0.4c0.5,0.3,0.8,0.6,1.1,1.1
	c0.3,0.4,0.4,0.9,0.6,1.5c0.1,0.5,0.2,1.1,0.2,1.6c0,0.6-0.1,1.1-0.2,1.6c-0.1,0.5-0.3,1-0.6,1.5c-0.3,0.4-0.6,0.8-1.1,1.1
	C400.7,278.1,400.2,278.3,399.6,278.3z M401.8,273.7c0-1-0.2-1.8-0.6-2.5c-0.4-0.7-0.9-1-1.7-1c-0.8,0-1.3,0.3-1.7,1
	c-0.4,0.6-0.6,1.5-0.6,2.5c0,1,0.2,1.9,0.6,2.5c0.4,0.6,0.9,1,1.7,1c0.8,0,1.3-0.3,1.7-1C401.6,275.5,401.8,274.7,401.8,273.7z
	 M408.3,274.3l-2.5,2.7h3.8v1.1h-5.5v-1l2.8-3c0.5-0.5,0.9-1,1.1-1.3c0.2-0.3,0.3-0.7,0.3-1.1c0-0.4-0.2-0.8-0.5-1.1
	c-0.3-0.3-0.7-0.4-1.1-0.4c-0.7,0-1.5,0.3-2.1,1l-0.7-0.9c0.9-0.8,1.8-1.3,2.8-1.3c0.8,0,1.5,0.2,2,0.7c0.5,0.5,0.8,1.1,0.8,1.9
	C409.5,272.6,409.1,273.4,408.3,274.3z M410.3,271.4l2.5-2.1h0.9v8.9h-1.2v-7.3l-1.6,1.3L410.3,271.4z"/>
<path class="st0" d="M436.7,273.8c0-1.3,0.4-2.4,1.3-3.3c0.9-0.9,2-1.4,3.2-1.4c1.3,0,2.3,0.5,3.2,1.4c0.9,0.9,1.4,2,1.4,3.2
	s-0.5,2.3-1.4,3.2c-0.9,0.9-2,1.3-3.3,1.3c-1.3,0-2.4-0.4-3.2-1.3C437.2,276.1,436.7,275,436.7,273.8z M444.7,273.7
	c0-1-0.3-1.8-1-2.4c-0.6-0.7-1.4-1-2.4-1c-0.9,0-1.7,0.3-2.4,1c-0.6,0.7-1,1.5-1,2.4c0,1,0.3,1.8,1,2.4c0.6,0.6,1.4,1,2.4,1
	s1.7-0.3,2.4-1C444.3,275.5,444.7,274.7,444.7,273.7z M450.3,278.3c-1,0-1.8-0.3-2.4-0.9c-0.6-0.6-0.9-1.4-0.9-2.4
	c0-1,0.3-1.8,1-2.4c0.6-0.6,1.5-0.9,2.5-0.9c0.6,0,1.2,0.2,1.7,0.5c0.5,0.3,0.9,0.7,1.2,1.2l-0.9,0.6c-0.2-0.4-0.5-0.7-0.9-0.9
	c-0.3-0.2-0.7-0.3-1.1-0.3c-0.7,0-1.2,0.2-1.6,0.7c-0.4,0.4-0.6,1-0.6,1.7c0,0.6,0.2,1.2,0.6,1.6c0.4,0.4,0.9,0.7,1.6,0.7
	c0.4,0,0.8-0.1,1.2-0.3c0.4-0.2,0.7-0.5,0.8-0.8l1,0.6c-0.3,0.5-0.7,0.9-1.2,1.2C451.6,278.1,451,278.3,450.3,278.3z M458.3,276.9
	l0.4,0.9c-0.5,0.4-1,0.5-1.7,0.5c-0.7,0-1.2-0.2-1.5-0.6c-0.3-0.4-0.5-1-0.5-1.8v-3.2h-1.1v-1h1.2v-2.3h1.1v2.3h2.3v1h-2.3v3.3
	c0,0.8,0.3,1.3,1,1.3C457.5,277.2,457.9,277.1,458.3,276.9z M466.5,274.3L464,277h3.8v1.1h-5.5v-1l2.8-3c0.5-0.5,0.9-1,1.1-1.3
	c0.2-0.3,0.3-0.7,0.3-1.1c0-0.4-0.2-0.8-0.5-1.1c-0.3-0.3-0.7-0.4-1.1-0.4c-0.7,0-1.5,0.3-2.1,1l-0.7-0.9c0.9-0.8,1.8-1.3,2.8-1.3
	c0.8,0,1.5,0.2,2,0.7c0.5,0.5,0.8,1.1,0.8,1.9C467.7,272.6,467.3,273.4,466.5,274.3z M472.5,278.3c-0.6,0-1.1-0.1-1.6-0.4
	c-0.5-0.3-0.8-0.6-1.1-1.1c-0.5-0.9-0.8-1.9-0.8-3.1s0.3-2.2,0.8-3.1c0.3-0.5,0.6-0.8,1.1-1.1c0.5-0.3,1-0.4,1.6-0.4
	c0.6,0,1.2,0.1,1.6,0.4c0.5,0.3,0.8,0.6,1.1,1.1c0.3,0.4,0.4,0.9,0.6,1.5c0.1,0.5,0.2,1.1,0.2,1.6c0,0.6-0.1,1.1-0.2,1.6
	c-0.1,0.5-0.3,1-0.6,1.5c-0.3,0.4-0.6,0.8-1.1,1.1S473.1,278.3,472.5,278.3z M474.8,273.7c0-1-0.2-1.8-0.6-2.5c-0.4-0.7-0.9-1-1.7-1
	c-0.8,0-1.3,0.3-1.7,1c-0.4,0.6-0.6,1.5-0.6,2.5c0,1,0.2,1.9,0.6,2.5c0.4,0.6,0.9,1,1.7,1c0.8,0,1.3-0.3,1.7-1
	C474.6,275.5,474.8,274.7,474.8,273.7z M481.2,274.3l-2.5,2.7h3.8v1.1H477v-1l2.8-3c0.5-0.5,0.9-1,1.1-1.3c0.2-0.3,0.3-0.7,0.3-1.1
	c0-0.4-0.2-0.8-0.5-1.1c-0.3-0.3-0.7-0.4-1.1-0.4c-0.7,0-1.5,0.3-2.1,1l-0.7-0.9c0.9-0.8,1.8-1.3,2.8-1.3c0.8,0,1.5,0.2,2,0.7
	c0.5,0.5,0.8,1.1,0.8,1.9C482.5,272.6,482,273.4,481.2,274.3z M483.2,271.4l2.5-2.1h0.9v8.9h-1.2v-7.3l-1.6,1.3L483.2,271.4z"/>
<path class="st0" d="M515.6,275.6v-6.3h1.2v8.9h-0.6l-5.3-6.3v6.3h-1.2v-8.9h0.5L515.6,275.6z M521.7,278.3c-1,0-1.8-0.3-2.4-1
	c-0.6-0.7-0.9-1.5-0.9-2.4c0-1,0.3-1.7,0.9-2.4c0.6-0.7,1.4-1,2.4-1c1,0,1.8,0.3,2.4,1c0.6,0.7,1,1.5,1,2.4c0,0.9-0.3,1.7-1,2.4
	C523.5,278,522.7,278.3,521.7,278.3z M524,274.9c0-0.6-0.2-1.2-0.6-1.6c-0.4-0.5-1-0.7-1.6-0.7c-0.6,0-1.1,0.2-1.6,0.7
	c-0.4,0.4-0.6,1-0.6,1.6c0,0.6,0.2,1.2,0.6,1.6s1,0.7,1.6,0.7c0.6,0,1.1-0.2,1.6-0.7S524,275.5,524,274.9z M528.7,276.5l1.9-4.8h1.3
	l-2.8,6.4h-0.8l-2.8-6.4h1.3L528.7,276.5z M539.6,274.3l-2.5,2.7h3.8v1.1h-5.5v-1l2.8-3c0.5-0.5,0.9-1,1.1-1.3
	c0.2-0.3,0.3-0.7,0.3-1.1c0-0.4-0.2-0.8-0.5-1.1c-0.3-0.3-0.7-0.4-1.1-0.4c-0.7,0-1.5,0.3-2.1,1l-0.7-0.9c0.9-0.8,1.8-1.3,2.8-1.3
	c0.8,0,1.5,0.2,2,0.7c0.5,0.5,0.8,1.1,0.8,1.9C540.8,272.6,540.4,273.4,539.6,274.3z M545.6,278.3c-0.6,0-1.1-0.1-1.6-0.4
	c-0.5-0.3-0.8-0.6-1.1-1.1c-0.5-0.9-0.8-1.9-0.8-3.1s0.3-2.2,0.8-3.1c0.3-0.5,0.6-0.8,1.1-1.1c0.5-0.3,1-0.4,1.6-0.4
	c0.6,0,1.2,0.1,1.6,0.4c0.5,0.3,0.8,0.6,1.1,1.1c0.3,0.4,0.4,0.9,0.6,1.5c0.1,0.5,0.2,1.1,0.2,1.6c0,0.6-0.1,1.1-0.2,1.6
	c-0.1,0.5-0.3,1-0.6,1.5c-0.3,0.4-0.6,0.8-1.1,1.1C546.8,278.1,546.2,278.3,545.6,278.3z M547.8,273.7c0-1-0.2-1.8-0.6-2.5
	c-0.4-0.7-0.9-1-1.7-1c-0.8,0-1.3,0.3-1.7,1c-0.4,0.6-0.6,1.5-0.6,2.5c0,1,0.2,1.9,0.6,2.5c0.4,0.6,0.9,1,1.7,1c0.8,0,1.3-0.3,1.7-1
	C547.7,275.5,547.8,274.7,547.8,273.7z M554.3,274.3l-2.5,2.7h3.8v1.1h-5.5v-1l2.8-3c0.5-0.5,0.9-1,1.1-1.3c0.2-0.3,0.3-0.7,0.3-1.1
	c0-0.4-0.2-0.8-0.5-1.1c-0.3-0.3-0.7-0.4-1.1-0.4c-0.7,0-1.5,0.3-2.1,1l-0.7-0.9c0.9-0.8,1.8-1.3,2.8-1.3c0.8,0,1.5,0.2,2,0.7
	c0.5,0.5,0.8,1.1,0.8,1.9C555.5,272.6,555.1,273.4,554.3,274.3z M556.3,271.4l2.5-2.1h0.9v8.9h-1.2v-7.3l-1.6,1.3L556.3,271.4z"/>
<path class="st0" d="M585.4,278.1h-3.2v-8.9h3.3c1.3,0,2.2,0.4,3,1.2c0.7,0.8,1.1,1.9,1.1,3.3c0,1.4-0.4,2.4-1.1,3.2
	C587.7,277.7,586.7,278.1,585.4,278.1z M583.4,270.4v6.6h2c0.9,0,1.6-0.3,2.1-0.9c0.5-0.6,0.8-1.4,0.8-2.4c0-1-0.3-1.7-0.8-2.4
	c-0.5-0.6-1.2-0.9-2.1-0.9H583.4z M597.1,274.8c0,0.1,0,0.3,0,0.6h-5.1c0.1,0.6,0.3,1,0.7,1.3c0.4,0.3,0.9,0.5,1.5,0.5
	c0.4,0,0.8-0.1,1.2-0.2c0.4-0.1,0.8-0.3,1.1-0.5l0.5,0.9c-0.3,0.3-0.8,0.5-1.2,0.6c-0.5,0.2-1,0.3-1.5,0.3c-0.6,0-1.1-0.1-1.6-0.3
	c-0.4-0.2-0.8-0.5-1.1-0.8s-0.5-0.7-0.6-1.1c-0.1-0.4-0.2-0.8-0.2-1.2c0-1,0.3-1.8,0.9-2.4c0.6-0.6,1.4-0.9,2.4-0.9
	c0.9,0,1.7,0.3,2.2,0.9C596.8,273,597.1,273.8,597.1,274.8z M591.9,274.4h4c0-0.6-0.2-1-0.6-1.3c-0.4-0.3-0.8-0.5-1.3-0.5
	c-0.5,0-1,0.2-1.3,0.5C592.2,273.4,592,273.9,591.9,274.4z M601.4,278.3c-1,0-1.8-0.3-2.4-0.9c-0.6-0.6-0.9-1.4-0.9-2.4
	c0-1,0.3-1.8,1-2.4c0.6-0.6,1.5-0.9,2.5-0.9c0.6,0,1.2,0.2,1.7,0.5c0.5,0.3,0.9,0.7,1.2,1.2l-0.9,0.6c-0.2-0.4-0.5-0.7-0.9-0.9
	c-0.3-0.2-0.7-0.3-1.1-0.3c-0.7,0-1.2,0.2-1.6,0.7c-0.4,0.4-0.6,1-0.6,1.7c0,0.6,0.2,1.2,0.6,1.6c0.4,0.4,0.9,0.7,1.6,0.7
	c0.4,0,0.8-0.1,1.2-0.3c0.4-0.2,0.7-0.5,0.8-0.8l1,0.6c-0.3,0.5-0.7,0.9-1.2,1.2C602.6,278.1,602.1,278.3,601.4,278.3z M612.5,274.3
	L610,277h3.8v1.1h-5.5v-1l2.8-3c0.5-0.5,0.9-1,1.1-1.3c0.2-0.3,0.3-0.7,0.3-1.1c0-0.4-0.2-0.8-0.5-1.1c-0.3-0.3-0.7-0.4-1.1-0.4
	c-0.7,0-1.5,0.3-2.1,1l-0.7-0.9c0.9-0.8,1.8-1.3,2.8-1.3c0.8,0,1.5,0.2,2,0.7c0.5,0.5,0.8,1.1,0.8,1.9
	C613.7,272.6,613.3,273.4,612.5,274.3z M618.5,278.3c-0.6,0-1.1-0.1-1.6-0.4c-0.5-0.3-0.8-0.6-1.1-1.1c-0.5-0.9-0.8-1.9-0.8-3.1
	s0.3-2.2,0.8-3.1c0.3-0.5,0.6-0.8,1.1-1.1c0.5-0.3,1-0.4,1.6-0.4c0.6,0,1.2,0.1,1.6,0.4c0.5,0.3,0.8,0.6,1.1,1.1
	c0.3,0.4,0.4,0.9,0.6,1.5c0.1,0.5,0.2,1.1,0.2,1.6c0,0.6-0.1,1.1-0.2,1.6c-0.1,0.5-0.3,1-0.6,1.5c-0.3,0.4-0.6,0.8-1.1,1.1
	C619.6,278.1,619.1,278.3,618.5,278.3z M620.7,273.7c0-1-0.2-1.8-0.6-2.5c-0.4-0.7-0.9-1-1.7-1s-1.3,0.3-1.7,1
	c-0.4,0.6-0.6,1.5-0.6,2.5c0,1,0.2,1.9,0.6,2.5c0.4,0.6,0.9,1,1.7,1c0.8,0,1.3-0.3,1.7-1C620.5,275.5,620.7,274.7,620.7,273.7z
	 M627.2,274.3l-2.5,2.7h3.8v1.1H623v-1l2.8-3c0.5-0.5,0.9-1,1.1-1.3c0.2-0.3,0.3-0.7,0.3-1.1c0-0.4-0.2-0.8-0.5-1.1
	c-0.3-0.3-0.7-0.4-1.1-0.4c-0.7,0-1.5,0.3-2.1,1l-0.7-0.9c0.9-0.8,1.8-1.3,2.8-1.3c0.8,0,1.5,0.2,2,0.7c0.5,0.5,0.8,1.1,0.8,1.9
	C628.4,272.6,628,273.4,627.2,274.3z M629.2,271.4l2.5-2.1h0.9v8.9h-1.2v-7.3l-1.6,1.3L629.2,271.4z"/>
<path class="st2" d="M74.3,78.9h559.9c0.2,0,0.4,0.2,0.4,0.4v0c0,0.2-0.2,0.4-0.4,0.4H74.3c-0.2,0-0.4-0.2-0.4-0.4v0
	C73.9,79.1,74.1,78.9,74.3,78.9z"/>
<path class="st2" d="M74.3,120.7h559.9c0.2,0,0.4,0.2,0.4,0.4v0c0,0.2-0.2,0.4-0.4,0.4H74.3c-0.2,0-0.4-0.2-0.4-0.4v0
	C73.9,120.9,74.1,120.7,74.3,120.7z"/>
<path class="st2" d="M74.3,161.7h559.9c0.2,0,0.4,0.2,0.4,0.4v0c0,0.2-0.2,0.4-0.4,0.4H74.3c-0.2,0-0.4-0.2-0.4-0.4v0
	C73.9,161.9,74.1,161.7,74.3,161.7z"/>
<path class="st2" d="M74.3,202.7h559.9c0.2,0,0.4,0.2,0.4,0.4v0c0,0.2-0.2,0.4-0.4,0.4H74.3c-0.2,0-0.4-0.2-0.4-0.4v0
	C73.9,202.9,74.1,202.7,74.3,202.7z"/>
<g>
	<path class="st3" d="M82.5,213c0,0,38-34.3,60.2-35.1c22.1-0.9,39.1,30.4,56.6,30.4s31.8-66.9,56.2-66.9s38.6,26.9,54.4,26.9
		c15.8,0,29.6-26.9,56.1-26.9c26.5,0,45.3,36.5,60.1,36.5c14.9,0,18.2-33,55.5-33c37.3,0,28.5-29,54.1-29c25.6,0,0,41.1,57.3,51.4"
		/>
</g>
<path class="st4" d="M586.4,149.6h22.8c2.5,0,4.6,2.1,4.6,4.6v22.3c0,2.5-2.1,4.6-4.6,4.6h-22.8c-2.5,0-4.6-2.1-4.6-4.6v-22.3
	C581.8,151.7,583.9,149.6,586.4,149.6z"/>
<path class="st0" d="M603.4,141.3c0.5,0,0.8,0.3,0.5,0.6l-5.9,4.1c-0.3,0.2-0.7,0.2-1,0l-5.9-4.1c-0.3-0.2,0-0.6,0.5-0.6H603.4z"/>
<path class="st5" d="M594,158.9h6.4c1.9,0,3.4,1.5,3.4,3.4v6.2c0,1.9-1.5,3.4-3.4,3.4H594c-1.9,0-3.4-1.5-3.4-3.4v-6.2
	C590.6,160.4,592.1,158.9,594,158.9z"/>
</svg>
