<?xml version="1.0" encoding="utf-8"?>
<!-- Generator: Adobe Illustrator 21.1.0, SVG Export Plug-In . SVG Version: 6.00 Build 0)  -->
<svg version="1.1" id="Layer_1" xmlns="http://www.w3.org/2000/svg" xmlns:xlink="http://www.w3.org/1999/xlink" x="0px" y="0px"
	 viewBox="0 0 1087.4 528.7" style="enable-background:new 0 0 1087.4 528.7;" xml:space="preserve">
<style type="text/css">
	.st0{fill:url(#SVGID_1_);fill-opacity:0.12;}
	.st1{fill:none;stroke:#FF0000;stroke-linecap:round;}
</style>
<linearGradient id="SVGID_1_" gradientUnits="userSpaceOnUse" x1="383.3232" y1="238.3442" x2="383.3232" y2="-134.7546" gradientTransform="matrix(1 0 0 -1 0 275.7)">
	<stop  offset="0" style="stop-color:#FF001F"/>
	<stop  offset="0.901" style="stop-color:#FFFFFF"/>
</linearGradient>
<path class="st0" d="M652.3,105.4l110,296.5l-758,7.9V36.7l37.3,29.5c7.9-7.9,25.5-23.6,39.3-29.5s82.5,29.5,113.9,47.1
	c15.7-3.9,53-9.8,82.5,0c37.3,11.8,62.8,51.1,72.7,19.6s55,0,74.6,0c15.7,0,72.7-11.8,98.2-19.6c15.7,13.7,53,41.2,80.5,37.3
	C634.7,121.1,648.4,109.4,652.3,105.4z"/>
<path class="st1" d="M762.1,406.9l-106-298.5c-3.9,3.9-19.6,15.7-47.1,19.6c-27.5,3.9-66.8-23.6-80.5-37.3
	c-25.5,5.9-80.5,19.6-98.2,19.6c-21.6,0-64.8-31.4-74.6,0s-35.3-5.9-72.7-19.6c-29.5-9.8-68.7-3.9-84.4,0
	C163.2,69.1,94.4,33.8,80.7,39.7c-13.7,5.9-31.4,21.6-39.3,29.5L10,39.7"/>
</svg>
