<svg width="419" height="126" viewBox="0 0 419 126" fill="none" xmlns="http://www.w3.org/2000/svg">
<g filter="url(#filter0_d_1_414)">
<rect x="3.95611" y="0.529845" width="411.595" height="119.517" rx="2.17144" fill="#1F2633" stroke="#686868" stroke-width="0.482541"/>
<rect opacity="0.16" x="3.95831" y="0.529845" width="411.595" height="119.517" rx="4.75873" fill="url(#paint0_linear_1_414)" stroke="#686868" stroke-width="0.482541"/>
<path d="M72.2571 46.8657L4.84912 114.563V120.289H414.663V2.28857L326.462 39.9823L315.731 31.378L295.944 46.8657L253.689 20.4793L198.018 46.8657L191.982 39.9823L181.921 46.8657L160.793 20.4793L124.238 56.0435L114.177 46.8657L87.6838 56.0435L72.2571 46.8657Z" fill="url(#paint1_linear_1_414)"/>
<mask id="mask0_1_414" style="mask-type:alpha" maskUnits="userSpaceOnUse" x="3" y="0" width="413" height="121">
<rect x="3.95831" y="0.529845" width="411.595" height="119.517" rx="2.17144" fill="#1F2633" stroke="#686868" stroke-width="0.482541"/>
</mask>
<g mask="url(#mask0_1_414)">
<path d="M14.9317 104.29L16.9028 102.63H17.6479V109.6H16.7142V103.885L15.4504 104.941L14.9317 104.29ZM20.1353 109.6H19.2299V102.461H20.1071V105.167C20.2642 104.935 20.4843 104.752 20.7672 104.62C21.0565 104.482 21.3708 104.413 21.7104 104.413C22.27 104.413 22.7415 104.595 23.1251 104.96C23.5086 105.324 23.7004 105.849 23.7004 106.535V109.6H22.8044V106.789C22.8044 106.305 22.6881 105.928 22.4554 105.658C22.2228 105.387 21.9116 105.252 21.5217 105.252C21.1131 105.252 20.7798 105.397 20.522 105.686C20.2642 105.969 20.1353 106.337 20.1353 106.789V109.6Z" fill="white"/>
<path d="M35.6894 106.591L33.7465 108.732H36.7457V109.6H32.3979V108.817L34.6331 106.422C35.0355 106 35.3216 105.658 35.4913 105.394C35.6611 105.123 35.746 104.843 35.746 104.554C35.746 104.215 35.6234 103.935 35.3781 103.715C35.1392 103.489 34.8406 103.375 34.4822 103.375C33.9037 103.375 33.341 103.639 32.794 104.168L32.2753 103.498C32.948 102.838 33.6899 102.508 34.501 102.508C35.1361 102.508 35.6548 102.699 36.0572 103.083C36.4596 103.467 36.6608 103.973 36.6608 104.601C36.6608 105.218 36.337 105.881 35.6894 106.591ZM41.508 107.025H42.2908V107.846H41.508V109.6H40.6026V107.846H37.3582L37.1601 107.28L40.9704 102.63H41.508V107.025ZM40.6026 104.337L38.4051 107.025H40.6026V104.337ZM44.2784 109.6H43.373V102.461H44.2501V105.167C44.4073 104.935 44.6274 104.752 44.9103 104.62C45.1995 104.482 45.5139 104.413 45.8534 104.413C46.413 104.413 46.8846 104.595 47.2681 104.96C47.6517 105.324 47.8434 105.849 47.8434 106.535V109.6H46.9475V106.789C46.9475 106.305 46.8311 105.928 46.5985 105.658C46.3659 105.387 46.0546 105.252 45.6648 105.252C45.2561 105.252 44.9229 105.397 44.6651 105.686C44.4073 105.969 44.2784 106.337 44.2784 106.789V109.6Z" fill="white"/>
<path d="M74.2467 104.29L76.2178 102.63H76.9629V109.6H76.0292V103.885L74.7654 104.941L74.2467 104.29ZM84.3829 104.413C84.9928 104.413 85.4832 104.611 85.8542 105.007C86.2189 105.391 86.4012 105.919 86.4012 106.591V109.6H85.4958V106.733C85.4958 106.261 85.3858 105.897 85.1657 105.639C84.9519 105.381 84.6564 105.252 84.2792 105.252C83.8831 105.252 83.5592 105.391 83.3077 105.667C83.0562 105.944 82.9305 106.305 82.9305 106.752V109.6H82.0345V106.752C82.0345 106.28 81.9245 105.912 81.7044 105.648C81.4844 105.384 81.1857 105.252 80.8085 105.252C80.4123 105.252 80.0854 105.394 79.8276 105.677C79.5761 105.953 79.4503 106.318 79.4503 106.771V109.6H78.5449V104.545H79.4315V105.29C79.5824 105.007 79.7899 104.79 80.054 104.639C80.3243 104.482 80.6261 104.407 80.9594 104.413C81.3052 104.413 81.6227 104.498 81.9119 104.667C82.2011 104.831 82.4118 105.06 82.5438 105.356C82.7136 105.067 82.9619 104.837 83.2889 104.667C83.6221 104.498 83.9868 104.413 84.3829 104.413Z" fill="white"/>
<path d="M96.7384 109.713C95.9839 109.713 95.2703 109.484 94.5975 109.025L95.0219 108.261C95.6381 108.651 96.2071 108.846 96.729 108.846C97.1628 108.846 97.5055 108.739 97.757 108.525C98.0148 108.305 98.1437 108.016 98.1437 107.657C98.1437 107.299 98.0085 107.006 97.7382 106.78C97.4741 106.554 97.1314 106.441 96.7101 106.441H95.8519V105.601H96.7007C97.0842 105.601 97.3986 105.497 97.6438 105.29C97.8891 105.076 98.0117 104.803 98.0117 104.469C98.0117 104.136 97.8953 103.872 97.6627 103.677C97.4301 103.476 97.1314 103.375 96.7667 103.375C96.2826 103.375 95.7733 103.58 95.2389 103.988L94.7579 103.328C95.0094 103.077 95.3206 102.879 95.6916 102.734C96.0688 102.583 96.4524 102.508 96.8422 102.508C97.4646 102.508 97.9771 102.684 98.3795 103.036C98.7756 103.382 98.9736 103.819 98.9736 104.347C98.9736 104.718 98.8636 105.048 98.6436 105.337C98.4235 105.626 98.1311 105.827 97.7664 105.941V105.978C98.1814 106.073 98.5115 106.277 98.7567 106.591C99.0019 106.9 99.1245 107.264 99.1245 107.685C99.1245 108.283 98.9013 108.77 98.4549 109.147C98.0148 109.525 97.4426 109.713 96.7384 109.713ZM106.158 104.413C106.767 104.413 107.258 104.611 107.629 105.007C107.994 105.391 108.176 105.919 108.176 106.591V109.6H107.27V106.733C107.27 106.261 107.16 105.897 106.94 105.639C106.727 105.381 106.431 105.252 106.054 105.252C105.658 105.252 105.334 105.391 105.082 105.667C104.831 105.944 104.705 106.305 104.705 106.752V109.6H103.809V106.752C103.809 106.28 103.699 105.912 103.479 105.648C103.259 105.384 102.96 105.252 102.583 105.252C102.187 105.252 101.86 105.394 101.602 105.677C101.351 105.953 101.225 106.318 101.225 106.771V109.6H100.32V104.545H101.206V105.29C101.357 105.007 101.565 104.79 101.829 104.639C102.099 104.482 102.401 104.407 102.734 104.413C103.08 104.413 103.397 104.498 103.687 104.667C103.976 104.831 104.186 105.06 104.318 105.356C104.488 105.067 104.737 104.837 105.064 104.667C105.397 104.498 105.761 104.413 106.158 104.413Z" fill="white"/>
<path d="M119.494 109.685C118.677 109.685 118.051 109.371 117.617 108.742C117.184 108.107 116.967 107.302 116.967 106.327C116.967 105.655 117.067 105.038 117.268 104.479C117.47 103.913 117.793 103.445 118.24 103.074C118.686 102.696 119.224 102.508 119.853 102.508C120.557 102.508 121.151 102.703 121.635 103.092L121.239 103.8C120.83 103.485 120.387 103.328 119.909 103.328C119.463 103.328 119.079 103.485 118.759 103.8C118.438 104.108 118.208 104.469 118.07 104.884C117.938 105.293 117.875 105.705 117.882 106.12V106.158C118.032 105.837 118.268 105.582 118.589 105.394C118.91 105.199 119.274 105.101 119.683 105.101C120.312 105.101 120.834 105.315 121.248 105.743C121.663 106.164 121.871 106.701 121.871 107.355C121.871 108.022 121.648 108.578 121.201 109.025C120.761 109.465 120.192 109.685 119.494 109.685ZM119.504 108.846C119.912 108.846 120.255 108.704 120.532 108.421C120.815 108.126 120.956 107.77 120.956 107.355C120.956 106.947 120.818 106.604 120.541 106.327C120.271 106.057 119.931 105.922 119.523 105.922C119.108 105.922 118.762 106.06 118.485 106.337C118.208 106.613 118.07 106.956 118.07 107.365C118.07 107.773 118.208 108.126 118.485 108.421C118.755 108.704 119.095 108.846 119.504 108.846ZM128.815 104.413C129.424 104.413 129.915 104.611 130.286 105.007C130.651 105.391 130.833 105.919 130.833 106.591V109.6H129.927V106.733C129.927 106.261 129.817 105.897 129.597 105.639C129.384 105.381 129.088 105.252 128.711 105.252C128.315 105.252 127.991 105.391 127.739 105.667C127.488 105.944 127.362 106.305 127.362 106.752V109.6H126.466V106.752C126.466 106.28 126.356 105.912 126.136 105.648C125.916 105.384 125.617 105.252 125.24 105.252C124.844 105.252 124.517 105.394 124.259 105.677C124.008 105.953 123.882 106.318 123.882 106.771V109.6H122.977V104.545H123.863V105.29C124.014 105.007 124.222 104.79 124.486 104.639C124.756 104.482 125.058 104.407 125.391 104.413C125.737 104.413 126.054 104.498 126.344 104.667C126.633 104.831 126.843 105.06 126.975 105.356C127.145 105.067 127.394 104.837 127.721 104.667C128.054 104.498 128.418 104.413 128.815 104.413Z" fill="white"/>
<path d="M139.725 104.29L141.696 102.63H142.441V109.6H141.508V103.885L140.244 104.941L139.725 104.29ZM146.061 108.336L147.419 104.545H148.418L146.296 110.166C146.089 110.725 145.844 111.128 145.561 111.373C145.284 111.625 144.945 111.75 144.542 111.75C144.222 111.75 143.951 111.684 143.731 111.552L143.844 110.76C144.071 110.861 144.275 110.911 144.457 110.911C144.872 110.911 145.206 110.615 145.457 110.024L145.646 109.581L143.448 104.545H144.495L146.061 108.336Z" fill="white"/>
<path d="M162.346 109.6H161.318L160.611 107.789H157.961L157.253 109.6H156.225L159.045 102.63H159.555L162.346 109.6ZM160.29 106.903L159.291 104.271L158.281 106.903H160.29ZM164.071 102.461V109.6H163.165V102.461H164.071ZM166.382 102.461V109.6H165.477V102.461H166.382Z" fill="white"/>
<rect x="52.2265" y="98.0213" width="18.6629" height="16.991" rx="0.943129" fill="#1A202C" stroke="#A3A0A0" stroke-width="0.628752"/>
<path d="M56.1029 103.47V102.63H60.4885V103.187L57.7722 109.6H56.7631L59.4227 103.47H56.1029ZM65.3355 105.28V102.461H66.2409V109.6H65.3355V108.893C64.8953 109.446 64.3106 109.723 63.5813 109.723C62.8456 109.723 62.2357 109.468 61.7516 108.959C61.2737 108.443 61.0348 107.811 61.0348 107.063C61.0348 106.321 61.2737 105.699 61.7516 105.196C62.2294 104.68 62.833 104.422 63.5624 104.422C64.2855 104.422 64.8765 104.708 65.3355 105.28ZM65.4015 107.063C65.4015 106.554 65.2412 106.126 64.9205 105.78C64.6061 105.428 64.1911 105.252 63.6756 105.252C63.16 105.252 62.7419 105.428 62.4212 105.78C62.1068 106.132 61.9496 106.56 61.9496 107.063C61.9496 107.579 62.1068 108.012 62.4212 108.365C62.7419 108.717 63.16 108.893 63.6756 108.893C64.1911 108.893 64.6061 108.717 64.9205 108.365C65.2412 108.019 65.4015 107.585 65.4015 107.063Z" fill="white"/>
</g>
</g>
<defs>
<filter id="filter0_d_1_414" x="0.89872" y="0.288574" width="417.712" height="125.632" filterUnits="userSpaceOnUse" color-interpolation-filters="sRGB">
<feFlood flood-opacity="0" result="BackgroundImageFix"/>
<feColorMatrix in="SourceAlpha" type="matrix" values="0 0 0 0 0 0 0 0 0 0 0 0 0 0 0 0 0 0 127 0" result="hardAlpha"/>
<feOffset dy="2.81612"/>
<feGaussianBlur stdDeviation="1.40806"/>
<feComposite in2="hardAlpha" operator="out"/>
<feColorMatrix type="matrix" values="0 0 0 0 0 0 0 0 0 0 0 0 0 0 0 0 0 0 0.25 0"/>
<feBlend mode="normal" in2="BackgroundImageFix" result="effect1_dropShadow_1_414"/>
<feBlend mode="normal" in="SourceGraphic" in2="effect1_dropShadow_1_414" result="shape"/>
</filter>
<linearGradient id="paint0_linear_1_414" x1="209.756" y1="0.288574" x2="209.756" y2="120.289" gradientUnits="userSpaceOnUse">
<stop stop-color="#2B3341"/>
<stop offset="0.9999" stop-color="#3D495F" stop-opacity="0.01"/>
<stop offset="1" stop-color="#212733" stop-opacity="0"/>
</linearGradient>
<linearGradient id="paint1_linear_1_414" x1="209.756" y1="17.6114" x2="209.756" y2="120.289" gradientUnits="userSpaceOnUse">
<stop stop-color="#7044D7"/>
<stop offset="1" stop-color="#1F2736" stop-opacity="0"/>
</linearGradient>
</defs>
</svg>
