<?xml version="1.0" encoding="utf-8"?>
<!-- Generator: Adobe Illustrator 21.1.0, SVG Export Plug-In . SVG Version: 6.00 Build 0)  -->
<svg version="1.1" id="Layer_1" xmlns="http://www.w3.org/2000/svg" xmlns:xlink="http://www.w3.org/1999/xlink" x="0px" y="0px"
	 viewBox="0 0 293.7 528.7" style="enable-background:new 0 0 293.7 528.7;" xml:space="preserve">
<style type="text/css">
	.st0{fill:#ECECEC;}
</style>
<path class="st0" d="M196.8,181.8L196.8,181.8c-1.1,0-2-0.9-2-2l0,0c0-1.1,0.9-2,2-2l0,0c1.1,0,2,0.9,2,2l0,0
	C198.8,180.9,197.9,181.8,196.8,181.8z"/>
<path class="st0" d="M196.8,190.8L196.8,190.8c-1.1,0-2-0.9-2-2l0,0c0-1.1,0.9-2,2-2l0,0c1.1,0,2,0.9,2,2l0,0
	C198.8,189.9,197.9,190.8,196.8,190.8z"/>
<path class="st0" d="M196.8,199.8L196.8,199.8c-1.1,0-2-0.9-2-2l0,0c0-1.1,0.9-2,2-2l0,0c1.1,0,2,0.9,2,2l0,0
	C198.8,198.9,197.9,199.8,196.8,199.8z"/>
</svg>
