<?xml version="1.0" encoding="utf-8"?>
<!-- Generator: Adobe Illustrator 21.1.0, SVG Export Plug-In . SVG Version: 6.00 Build 0)  -->
<svg version="1.1" id="Layer_1" xmlns="http://www.w3.org/2000/svg" xmlns:xlink="http://www.w3.org/1999/xlink" x="0px" y="0px"
	 viewBox="0 0 200 200" style="enable-background:new 0 0 200 200;" xml:space="preserve">
<style type="text/css">
	.st0{fill:#805AD5;stroke:#805AD5;stroke-width:0.3695;}
</style>
<path class="st0" d="M121.1,69.1v1.1h1.1h26.5h1.1v-1.1V43.9v-1.1h-1.1h-5.3h-1.1v1.1v12.6c-12.1-11.9-28.8-18.8-46.5-18.8
	c-35.6,0-64.7,27.7-64.7,61.8c0,7.4,1.4,14.6,4,21.5l0.4,1l1-0.4l5-1.8l1.1-0.4l-0.4-1.1c-2.3-6-3.5-12.4-3.5-18.9
	c0-30,25.6-54.4,57.1-54.4c16.3,0,31.6,6.6,42.3,17.9h-15.8h-1.1v1.1V69.1z"/>
<path class="st0" d="M152.2,85.6l-1.1,0.4l0.4,1.1c2.2,6,3.3,12.4,3.3,18.9c0,30-24.1,54.4-53.7,54.4c-15.3,0-29.7-6.6-39.8-17.9
	h14.9h1.1v-1.1v-5.1v-1.1h-1.1H51.3h-1.1v1.1v25.3v1.1h1.1h5h1.1v-1.1v-12.5c11.4,11.9,27.1,18.7,43.7,18.7
	c33.6,0,60.9-27.7,60.9-61.8c0-7.4-1.3-14.6-3.8-21.5l-0.4-1.1l-1.1,0.4L152.2,85.6z"/>
</svg>
