<?xml version="1.0" encoding="utf-8"?>
<!-- Generator: Adobe Illustrator 21.1.0, SVG Export Plug-In . SVG Version: 6.00 Build 0)  -->
<svg version="1.1" id="Layer_1" xmlns="http://www.w3.org/2000/svg" xmlns:xlink="http://www.w3.org/1999/xlink" x="0px" y="0px"
	 viewBox="0 0 430 310" style="enable-background:new 0 0 430 310;" xml:space="preserve">
<style type="text/css">
	.st0{fill:#212734;}
	.st1{fill:url(#SVGID_1_);}
	.st2{fill:url(#SVGID_2_);}
	.st3{fill:url(#SVGID_3_);}
	.st4{fill:url(#SVGID_4_);}
	.st5{fill:url(#SVGID_5_);}
	.st6{fill:url(#SVGID_6_);}
	.st7{fill:url(#SVGID_7_);}
	.st8{fill:url(#SVGID_8_);}
	.st9{fill:url(#SVGID_9_);}
	.st10{fill:url(#SVGID_10_);}
	.st11{fill:url(#SVGID_11_);}
	.st12{fill:url(#SVGID_12_);}
	.st13{fill:url(#SVGID_13_);}
	.st14{fill:url(#SVGID_14_);}
	.st15{fill:url(#SVGID_15_);}
	.st16{fill:url(#SVGID_16_);}
	.st17{fill:url(#SVGID_17_);}
	.st18{fill:url(#SVGID_18_);}
	.st19{fill:url(#SVGID_19_);}
	.st20{fill:url(#SVGID_20_);}
	.st21{fill:url(#SVGID_21_);}
	.st22{fill:url(#SVGID_22_);}
	.st23{fill:url(#SVGID_23_);}
	.st24{fill:url(#SVGID_24_);}
	.st25{fill:url(#SVGID_25_);}
	.st26{fill:url(#SVGID_26_);}
	.st27{fill:url(#SVGID_27_);}
	.st28{fill:url(#SVGID_28_);}
	.st29{fill:url(#SVGID_29_);}
	.st30{fill:url(#SVGID_30_);}
	.st31{fill:url(#SVGID_31_);}
	.st32{fill:url(#SVGID_32_);}
	.st33{fill:url(#SVGID_33_);}
	.st34{fill:url(#SVGID_34_);}
	.st35{fill:url(#SVGID_35_);}
	.st36{fill:url(#SVGID_36_);}
	.st37{fill:url(#SVGID_37_);}
	.st38{fill:url(#SVGID_38_);}
	.st39{fill:url(#SVGID_39_);}
	.st40{fill:#F2F2F2;}
	.st41{fill:#1A202C;stroke:#686868;stroke-width:1.1775;}
	.st42{fill:#FFFFFF;}
</style>
<path class="st0" d="M413.4,307.3H15.9c-6.4,0-11.6-5.6-11.6-12.4V140.4c0-6.8,5.2-12.4,11.6-12.4h397.5c6.4,0,11.6,5.6,11.6,12.4
	v154.5C425,301.7,419.8,307.3,413.4,307.3z"/>
<linearGradient id="SVGID_1_" gradientUnits="userSpaceOnUse" x1="41.3406" y1="350.5091" x2="41.3406" y2="459.3507" gradientTransform="matrix(1 0 0 1 0 -152)">
	<stop  offset="0" style="stop-color:#937EC1;stop-opacity:0.6"/>
	<stop  offset="1" style="stop-color:#937EC1;stop-opacity:0"/>
</linearGradient>
<path class="st1" d="M39.5,198.5h3.8c1.6,0,3.1,1.4,3.1,3.1v102.6c0,1.6-1.4,3.1-3.1,3.1h-3.8c-1.6,0-3.1-1.4-3.1-3.1V201.6
	C36.3,199.9,37.8,198.5,39.5,198.5z"/>
<linearGradient id="SVGID_2_" gradientUnits="userSpaceOnUse" x1="52.0018" y1="359.8135" x2="52.0018" y2="459.3507" gradientTransform="matrix(1 0 0 1 0 -152)">
	<stop  offset="0" style="stop-color:#937EC1;stop-opacity:0.6"/>
	<stop  offset="1" style="stop-color:#937EC1;stop-opacity:0"/>
</linearGradient>
<path class="st2" d="M50.1,207.8h3.8c1.6,0,3.1,1.4,3.1,3.1v93.3c0,1.6-1.4,3.1-3.1,3.1h-3.8c-1.6,0-3.1-1.4-3.1-3.1v-93.3
	C47.1,209.2,48.5,207.8,50.1,207.8z"/>
<linearGradient id="SVGID_3_" gradientUnits="userSpaceOnUse" x1="62.76" y1="378.3253" x2="62.76" y2="459.2538" gradientTransform="matrix(1 0 0 1 0 -152)">
	<stop  offset="0" style="stop-color:#937EC1;stop-opacity:0.6"/>
	<stop  offset="1" style="stop-color:#937EC1;stop-opacity:0"/>
</linearGradient>
<path class="st3" d="M60.9,226.3h3.8c1.6,0,3.1,1.4,3.1,3.1v74.7c0,1.6-1.4,3.1-3.1,3.1h-3.8c-1.6,0-3.1-1.4-3.1-3.1v-74.7
	C57.8,227.8,59.1,226.3,60.9,226.3z"/>
<linearGradient id="SVGID_4_" gradientUnits="userSpaceOnUse" x1="73.4212" y1="394.3171" x2="73.4212" y2="459.3507" gradientTransform="matrix(1 0 0 1 0 -152)">
	<stop  offset="0" style="stop-color:#937EC1;stop-opacity:0.6"/>
	<stop  offset="1" style="stop-color:#937EC1;stop-opacity:0"/>
</linearGradient>
<path class="st4" d="M71.5,242.3h3.8c1.6,0,3.1,1.4,3.1,3.1v58.8c0,1.6-1.4,3.1-3.1,3.1h-3.8c-1.6,0-3.1-1.4-3.1-3.1v-58.8
	C68.5,243.7,69.9,242.3,71.5,242.3z"/>
<linearGradient id="SVGID_5_" gradientUnits="userSpaceOnUse" x1="84.1794" y1="407.4983" x2="84.1794" y2="459.2538" gradientTransform="matrix(1 0 0 1 0 -152)">
	<stop  offset="0" style="stop-color:#937EC1;stop-opacity:0.6"/>
	<stop  offset="1" style="stop-color:#937EC1;stop-opacity:0"/>
</linearGradient>
<path class="st5" d="M82.3,255.5h3.8c1.6,0,3.1,1.4,3.1,3.1v45.6c0,1.6-1.4,3.1-3.1,3.1h-3.8c-1.6,0-3.1-1.4-3.1-3.1v-45.6
	C79.2,257,80.5,255.5,82.3,255.5z"/>
<linearGradient id="SVGID_6_" gradientUnits="userSpaceOnUse" x1="94.8406" y1="408.8552" x2="94.8406" y2="459.251" gradientTransform="matrix(1 0 0 1 0 -152)">
	<stop  offset="0" style="stop-color:#937EC1;stop-opacity:0.6"/>
	<stop  offset="1" style="stop-color:#937EC1;stop-opacity:0"/>
</linearGradient>
<path class="st6" d="M93,256.9h3.8c1.6,0,3.1,1.4,3.1,3.1v44.3c0,1.6-1.4,3.1-3.1,3.1H93c-1.6,0-3.1-1.4-3.1-3.1V260
	C89.9,258.2,91.3,256.9,93,256.9z"/>
<linearGradient id="SVGID_7_" gradientUnits="userSpaceOnUse" x1="105.5988" y1="402.2646" x2="105.5988" y2="459.2914" gradientTransform="matrix(1 0 0 1 0 -152)">
	<stop  offset="0" style="stop-color:#937EC1;stop-opacity:0.6"/>
	<stop  offset="1" style="stop-color:#937EC1;stop-opacity:0"/>
</linearGradient>
<path class="st7" d="M103.7,250.3h3.8c1.6,0,3.1,1.4,3.1,3.1v50.9c0,1.6-1.4,3.1-3.1,3.1h-3.8c-1.6,0-3.1-1.4-3.1-3.1v-50.9
	C100.6,251.6,102,250.3,103.7,250.3z"/>
<linearGradient id="SVGID_8_" gradientUnits="userSpaceOnUse" x1="116.26" y1="395.5771" x2="116.26" y2="459.2349" gradientTransform="matrix(1 0 0 1 0 -152)">
	<stop  offset="0" style="stop-color:#937EC1;stop-opacity:0.6"/>
	<stop  offset="1" style="stop-color:#937EC1;stop-opacity:0"/>
</linearGradient>
<path class="st8" d="M114.4,243.6h3.8c1.6,0,3.1,1.4,3.1,3.1v57.6c0,1.6-1.4,3.1-3.1,3.1h-3.8c-1.6,0-3.1-1.4-3.1-3.1v-57.6
	C111.3,244.9,112.7,243.6,114.4,243.6z"/>
<linearGradient id="SVGID_9_" gradientUnits="userSpaceOnUse" x1="126.9213" y1="390.3434" x2="126.9213" y2="459.3507" gradientTransform="matrix(1 0 0 1 0 -152)">
	<stop  offset="0" style="stop-color:#937EC1;stop-opacity:0.6"/>
	<stop  offset="1" style="stop-color:#937EC1;stop-opacity:0"/>
</linearGradient>
<path class="st9" d="M125,238.3h3.8c1.6,0,3.1,1.4,3.1,3.1v62.8c0,1.6-1.4,3.1-3.1,3.1H125c-1.6,0-3.1-1.4-3.1-3.1v-62.8
	C122,239.7,123.4,238.3,125,238.3z"/>
<linearGradient id="SVGID_10_" gradientUnits="userSpaceOnUse" x1="137.6795" y1="385.0128" x2="137.6795" y2="459.3507" gradientTransform="matrix(1 0 0 1 0 -152)">
	<stop  offset="0" style="stop-color:#937EC1;stop-opacity:0.6"/>
	<stop  offset="1" style="stop-color:#937EC1;stop-opacity:0"/>
</linearGradient>
<path class="st10" d="M135.8,233h3.8c1.6,0,3.1,1.4,3.1,3.1v68.1c0,1.6-1.4,3.1-3.1,3.1h-3.8c-1.6,0-3.1-1.4-3.1-3.1v-68.1
	C132.7,234.4,134,233,135.8,233z"/>
<linearGradient id="SVGID_11_" gradientUnits="userSpaceOnUse" x1="148.3407" y1="375.7084" x2="148.3407" y2="459.2592" gradientTransform="matrix(1 0 0 1 0 -152)">
	<stop  offset="0" style="stop-color:#937EC1;stop-opacity:0.6"/>
	<stop  offset="1" style="stop-color:#937EC1;stop-opacity:0"/>
</linearGradient>
<path class="st11" d="M146.5,223.7h3.8c1.6,0,3.1,1.4,3.1,3.1v77.4c0,1.6-1.4,3.1-3.1,3.1h-3.8c-1.6,0-3.1-1.4-3.1-3.1v-77.4
	C143.4,225.1,144.8,223.7,146.5,223.7z"/>
<linearGradient id="SVGID_12_" gradientUnits="userSpaceOnUse" x1="159.0988" y1="361.0734" x2="159.0988" y2="459.2538" gradientTransform="matrix(1 0 0 1 0 -152)">
	<stop  offset="0" style="stop-color:#937EC1;stop-opacity:0.6"/>
	<stop  offset="1" style="stop-color:#937EC1;stop-opacity:0"/>
</linearGradient>
<path class="st12" d="M157.2,209.1h3.8c1.6,0,3.1,1.4,3.1,3.1v92c0,1.6-1.4,3.1-3.1,3.1h-3.8c-1.6,0-3.1-1.4-3.1-3.1v-92
	C154.1,210.5,155.5,209.1,157.2,209.1z"/>
<linearGradient id="SVGID_13_" gradientUnits="userSpaceOnUse" x1="169.7601" y1="338.5879" x2="169.7601" y2="459.3507" gradientTransform="matrix(1 0 0 1 0 -152)">
	<stop  offset="0" style="stop-color:#937EC1;stop-opacity:0.6"/>
	<stop  offset="1" style="stop-color:#937EC1;stop-opacity:0"/>
</linearGradient>
<path class="st13" d="M167.9,186.6h3.8c1.6,0,3.1,1.4,3.1,3.1v114.6c0,1.6-1.4,3.1-3.1,3.1h-3.8c-1.6,0-3.1-1.4-3.1-3.1V189.7
	C164.9,187.9,166.2,186.6,167.9,186.6z"/>
<linearGradient id="SVGID_14_" gradientUnits="userSpaceOnUse" x1="180.5183" y1="322.6929" x2="180.5183" y2="459.3507" gradientTransform="matrix(1 0 0 1 0 -152)">
	<stop  offset="0" style="stop-color:#937EC1;stop-opacity:0.6"/>
	<stop  offset="1" style="stop-color:#937EC1;stop-opacity:0"/>
</linearGradient>
<path class="st14" d="M178.6,170.7h3.8c1.6,0,3.1,1.4,3.1,3.1v130.5c0,1.6-1.4,3.1-3.1,3.1h-3.8c-1.6,0-3.1-1.4-3.1-3.1V173.7
	C175.5,172,176.9,170.7,178.6,170.7z"/>
<linearGradient id="SVGID_15_" gradientUnits="userSpaceOnUse" x1="191.1795" y1="310.7717" x2="191.1795" y2="459.3507" gradientTransform="matrix(1 0 0 1 0 -152)">
	<stop  offset="0" style="stop-color:#937EC1;stop-opacity:0.6"/>
	<stop  offset="1" style="stop-color:#937EC1;stop-opacity:0"/>
</linearGradient>
<path class="st15" d="M189.3,158.8h3.8c1.6,0,3.1,1.4,3.1,3.1v142.4c0,1.6-1.4,3.1-3.1,3.1h-3.8c-1.6,0-3.1-1.4-3.1-3.1V161.8
	C186.2,160.1,187.6,158.8,189.3,158.8z"/>
<linearGradient id="SVGID_16_" gradientUnits="userSpaceOnUse" x1="201.8408" y1="313.3886" x2="201.8408" y2="459.3507" gradientTransform="matrix(1 0 0 1 0 -152)">
	<stop  offset="0" style="stop-color:#937EC1;stop-opacity:0.6"/>
	<stop  offset="1" style="stop-color:#937EC1;stop-opacity:0"/>
</linearGradient>
<path class="st16" d="M200,161.4h3.8c1.6,0,3.1,1.4,3.1,3.1v139.8c0,1.6-1.4,3.1-3.1,3.1H200c-1.6,0-3.1-1.4-3.1-3.1V164.5
	C196.9,162.7,198.3,161.4,200,161.4z"/>
<linearGradient id="SVGID_17_" gradientUnits="userSpaceOnUse" x1="212.5989" y1="322.6929" x2="212.5989" y2="459.3507" gradientTransform="matrix(1 0 0 1 0 -152)">
	<stop  offset="0" style="stop-color:#937EC1;stop-opacity:0.6"/>
	<stop  offset="1" style="stop-color:#937EC1;stop-opacity:0"/>
</linearGradient>
<path class="st17" d="M210.7,170.7h3.8c1.6,0,3.1,1.4,3.1,3.1v130.5c0,1.6-1.4,3.1-3.1,3.1h-3.8c-1.6,0-3.1-1.4-3.1-3.1V173.7
	C207.6,172,209,170.7,210.7,170.7z"/>
<linearGradient id="SVGID_18_" gradientUnits="userSpaceOnUse" x1="223.2602" y1="337.231" x2="223.2602" y2="459.3507" gradientTransform="matrix(1 0 0 1 0 -152)">
	<stop  offset="0" style="stop-color:#937EC1;stop-opacity:0.6"/>
	<stop  offset="1" style="stop-color:#937EC1;stop-opacity:0"/>
</linearGradient>
<path class="st18" d="M221.4,185.2h3.8c1.6,0,3.1,1.4,3.1,3.1v115.9c0,1.6-1.4,3.1-3.1,3.1h-3.8c-1.6,0-3.1-1.4-3.1-3.1V188.3
	C218.4,186.6,219.7,185.2,221.4,185.2z"/>
<linearGradient id="SVGID_19_" gradientUnits="userSpaceOnUse" x1="234.0183" y1="349.1522" x2="234.0183" y2="459.2538" gradientTransform="matrix(1 0 0 1 0 -152)">
	<stop  offset="0" style="stop-color:#937EC1;stop-opacity:0.6"/>
	<stop  offset="1" style="stop-color:#937EC1;stop-opacity:0"/>
</linearGradient>
<path class="st19" d="M232.1,197.2h3.8c1.6,0,3.1,1.4,3.1,3.1v103.9c0,1.6-1.4,3.1-3.1,3.1h-3.8c-1.6,0-3.1-1.4-3.1-3.1V200.3
	C229,198.6,230.4,197.2,232.1,197.2z"/>
<linearGradient id="SVGID_20_" gradientUnits="userSpaceOnUse" x1="244.6796" y1="353.1259" x2="244.6796" y2="459.2538" gradientTransform="matrix(1 0 0 1 0 -152)">
	<stop  offset="0" style="stop-color:#937EC1;stop-opacity:0.6"/>
	<stop  offset="1" style="stop-color:#937EC1;stop-opacity:0"/>
</linearGradient>
<path class="st20" d="M242.8,201.1h3.8c1.6,0,3.1,1.4,3.1,3.1v99.9c0,1.6-1.4,3.1-3.1,3.1h-3.8c-1.6,0-3.1-1.4-3.1-3.1v-99.9
	C239.8,202.6,241.1,201.1,242.8,201.1z"/>
<linearGradient id="SVGID_21_" gradientUnits="userSpaceOnUse" x1="255.4377" y1="350.5091" x2="255.4377" y2="459.3507" gradientTransform="matrix(1 0 0 1 0 -152)">
	<stop  offset="0" style="stop-color:#937EC1;stop-opacity:0.6"/>
	<stop  offset="1" style="stop-color:#937EC1;stop-opacity:0"/>
</linearGradient>
<path class="st21" d="M253.5,198.5h3.8c1.6,0,3.1,1.4,3.1,3.1v102.6c0,1.6-1.4,3.1-3.1,3.1h-3.8c-1.6,0-3.1-1.4-3.1-3.1V201.6
	C250.4,199.9,251.8,198.5,253.5,198.5z"/>
<linearGradient id="SVGID_22_" gradientUnits="userSpaceOnUse" x1="266.099" y1="343.9185" x2="266.099" y2="459.3507" gradientTransform="matrix(1 0 0 1 0 -152)">
	<stop  offset="0" style="stop-color:#937EC1;stop-opacity:0.6"/>
	<stop  offset="1" style="stop-color:#937EC1;stop-opacity:0"/>
</linearGradient>
<path class="st22" d="M264.2,191.9h3.8c1.6,0,3.1,1.4,3.1,3.1v109.2c0,1.6-1.4,3.1-3.1,3.1h-3.8c-1.6,0-3.1-1.4-3.1-3.1V194.9
	C261.1,193.3,262.6,191.9,264.2,191.9z"/>
<linearGradient id="SVGID_23_" gradientUnits="userSpaceOnUse" x1="276.7602" y1="338.5879" x2="276.7602" y2="459.3507" gradientTransform="matrix(1 0 0 1 0 -152)">
	<stop  offset="0" style="stop-color:#937EC1;stop-opacity:0.6"/>
	<stop  offset="1" style="stop-color:#937EC1;stop-opacity:0"/>
</linearGradient>
<path class="st23" d="M274.9,186.6h3.8c1.6,0,3.1,1.4,3.1,3.1v114.6c0,1.6-1.4,3.1-3.1,3.1h-3.8c-1.6,0-3.1-1.4-3.1-3.1V189.7
	C271.9,187.9,273.2,186.6,274.9,186.6z"/>
<linearGradient id="SVGID_24_" gradientUnits="userSpaceOnUse" x1="287.5184" y1="334.6142" x2="287.5184" y2="459.3507" gradientTransform="matrix(1 0 0 1 0 -152)">
	<stop  offset="0" style="stop-color:#937EC1;stop-opacity:0.6"/>
	<stop  offset="1" style="stop-color:#937EC1;stop-opacity:0"/>
</linearGradient>
<path class="st24" d="M285.6,182.6h3.8c1.6,0,3.1,1.4,3.1,3.1v118.5c0,1.6-1.4,3.1-3.1,3.1h-3.8c-1.6,0-3.1-1.4-3.1-3.1V185.6
	C282.5,184,283.9,182.6,285.6,182.6z"/>
<linearGradient id="SVGID_25_" gradientUnits="userSpaceOnUse" x1="298.1797" y1="335.971" x2="298.1797" y2="459.3507" gradientTransform="matrix(1 0 0 1 0 -152)">
	<stop  offset="0" style="stop-color:#937EC1;stop-opacity:0.6"/>
	<stop  offset="1" style="stop-color:#937EC1;stop-opacity:0"/>
</linearGradient>
<path class="st25" d="M296.3,184h3.8c1.6,0,3.1,1.4,3.1,3.1v117.2c0,1.6-1.4,3.1-3.1,3.1h-3.8c-1.6,0-3.1-1.4-3.1-3.1V187
	C293.3,185.3,294.6,184,296.3,184z"/>
<linearGradient id="SVGID_26_" gradientUnits="userSpaceOnUse" x1="308.9378" y1="342.5616" x2="308.9378" y2="459.3507" gradientTransform="matrix(1 0 0 1 0 -152)">
	<stop  offset="0" style="stop-color:#937EC1;stop-opacity:0.6"/>
	<stop  offset="1" style="stop-color:#937EC1;stop-opacity:0"/>
</linearGradient>
<path class="st26" d="M307,190.6h3.8c1.6,0,3.1,1.4,3.1,3.1v110.6c0,1.6-1.4,3.1-3.1,3.1H307c-1.6,0-3.1-1.4-3.1-3.1V193.7
	C303.9,191.9,305.3,190.6,307,190.6z"/>
<linearGradient id="SVGID_27_" gradientUnits="userSpaceOnUse" x1="319.599" y1="354.4828" x2="319.599" y2="459.3507" gradientTransform="matrix(1 0 0 1 0 -152)">
	<stop  offset="0" style="stop-color:#937EC1;stop-opacity:0.6"/>
	<stop  offset="1" style="stop-color:#937EC1;stop-opacity:0"/>
</linearGradient>
<path class="st27" d="M317.7,202.5h3.8c1.6,0,3.1,1.4,3.1,3.1v98.7c0,1.6-1.4,3.1-3.1,3.1h-3.8c-1.6,0-3.1-1.4-3.1-3.1v-98.7
	C314.7,203.8,316.1,202.5,317.7,202.5z"/>
<linearGradient id="SVGID_28_" gradientUnits="userSpaceOnUse" x1="330.3572" y1="370.3778" x2="330.3572" y2="459.2538" gradientTransform="matrix(1 0 0 1 0 -152)">
	<stop  offset="0" style="stop-color:#937EC1;stop-opacity:0.6"/>
	<stop  offset="1" style="stop-color:#937EC1;stop-opacity:0"/>
</linearGradient>
<path class="st28" d="M328.5,218.4h3.8c1.6,0,3.1,1.4,3.1,3.1v82.7c0,1.6-1.4,3.1-3.1,3.1h-3.8c-1.6,0-3.1-1.4-3.1-3.1v-82.7
	C325.4,219.7,326.7,218.4,328.5,218.4z"/>
<linearGradient id="SVGID_29_" gradientUnits="userSpaceOnUse" x1="341.0185" y1="370.3778" x2="341.0185" y2="459.2538" gradientTransform="matrix(1 0 0 1 0 -152)">
	<stop  offset="0" style="stop-color:#937EC1;stop-opacity:0.6"/>
	<stop  offset="1" style="stop-color:#937EC1;stop-opacity:0"/>
</linearGradient>
<path class="st29" d="M339.1,218.4h3.8c1.6,0,3.1,1.4,3.1,3.1v82.7c0,1.6-1.4,3.1-3.1,3.1h-3.8c-1.6,0-3.1-1.4-3.1-3.1v-82.7
	C336,219.7,337.5,218.4,339.1,218.4z"/>
<g>
	
		<linearGradient id="SVGID_30_" gradientUnits="userSpaceOnUse" x1="9.2599" y1="379.6822" x2="9.2599" y2="459.2544" gradientTransform="matrix(1 0 0 1 0 -152)">
		<stop  offset="0" style="stop-color:#937EC1;stop-opacity:0.6"/>
		<stop  offset="1" style="stop-color:#937EC1;stop-opacity:0"/>
	</linearGradient>
	<path class="st30" d="M7.4,227.7h3.8c1.6,0,3.1,1.4,3.1,3.1v73.5c0,1.6-1.4,3.1-3.1,3.1H7.4c-1.6,0-3.1-1.4-3.1-3.1v-73.5
		C4.3,229,5.6,227.7,7.4,227.7z"/>
	
		<linearGradient id="SVGID_31_" gradientUnits="userSpaceOnUse" x1="19.9212" y1="361.0734" x2="19.9212" y2="459.2538" gradientTransform="matrix(1 0 0 1 0 -152)">
		<stop  offset="0" style="stop-color:#937EC1;stop-opacity:0.6"/>
		<stop  offset="1" style="stop-color:#937EC1;stop-opacity:0"/>
	</linearGradient>
	<path class="st31" d="M18,209.1h3.8c1.6,0,3.1,1.4,3.1,3.1v92c0,1.6-1.4,3.1-3.1,3.1H18c-1.6,0-3.1-1.4-3.1-3.1v-92
		C15,210.5,16.4,209.1,18,209.1z"/>
	
		<linearGradient id="SVGID_32_" gradientUnits="userSpaceOnUse" x1="30.6793" y1="350.5091" x2="30.6793" y2="459.3507" gradientTransform="matrix(1 0 0 1 0 -152)">
		<stop  offset="0" style="stop-color:#937EC1;stop-opacity:0.6"/>
		<stop  offset="1" style="stop-color:#937EC1;stop-opacity:0"/>
	</linearGradient>
	<path class="st32" d="M28.8,198.5h3.8c1.6,0,3.1,1.4,3.1,3.1v102.6c0,1.6-1.4,3.1-3.1,3.1h-3.8c-1.6,0-3.1-1.4-3.1-3.1V201.6
		C25.7,199.9,27,198.5,28.8,198.5z"/>
	
		<linearGradient id="SVGID_33_" gradientUnits="userSpaceOnUse" x1="351.7766" y1="379.6822" x2="351.7766" y2="459.2544" gradientTransform="matrix(1 0 0 1 0 -152)">
		<stop  offset="0" style="stop-color:#937EC1;stop-opacity:0.6"/>
		<stop  offset="1" style="stop-color:#937EC1;stop-opacity:0"/>
	</linearGradient>
	<path class="st33" d="M349.9,227.7h3.8c1.6,0,3.1,1.4,3.1,3.1v73.5c0,1.6-1.4,3.1-3.1,3.1h-3.8c-1.6,0-3.1-1.4-3.1-3.1v-73.5
		C346.9,229,348.2,227.7,349.9,227.7z"/>
	
		<linearGradient id="SVGID_34_" gradientUnits="userSpaceOnUse" x1="362.5348" y1="361.0734" x2="362.5348" y2="459.2538" gradientTransform="matrix(1 0 0 1 0 -152)">
		<stop  offset="0" style="stop-color:#937EC1;stop-opacity:0.6"/>
		<stop  offset="1" style="stop-color:#937EC1;stop-opacity:0"/>
	</linearGradient>
	<path class="st34" d="M360.6,209.1h3.8c1.6,0,3.1,1.4,3.1,3.1v92c0,1.6-1.4,3.1-3.1,3.1h-3.8c-1.6,0-3.1-1.4-3.1-3.1v-92
		C357.5,210.5,358.9,209.1,360.6,209.1z"/>
	
		<linearGradient id="SVGID_35_" gradientUnits="userSpaceOnUse" x1="373.196" y1="350.5091" x2="373.196" y2="459.3507" gradientTransform="matrix(1 0 0 1 0 -152)">
		<stop  offset="0" style="stop-color:#937EC1;stop-opacity:0.6"/>
		<stop  offset="1" style="stop-color:#937EC1;stop-opacity:0"/>
	</linearGradient>
	<path class="st35" d="M371.3,198.5h3.8c1.6,0,3.1,1.4,3.1,3.1v102.6c0,1.6-1.4,3.1-3.1,3.1h-3.8c-1.6,0-3.1-1.4-3.1-3.1V201.6
		C368.2,199.9,369.7,198.5,371.3,198.5z"/>
	
		<linearGradient id="SVGID_36_" gradientUnits="userSpaceOnUse" x1="383.8573" y1="350.5091" x2="383.8573" y2="459.3507" gradientTransform="matrix(1 0 0 1 0 -152)">
		<stop  offset="0" style="stop-color:#937EC1;stop-opacity:0.6"/>
		<stop  offset="1" style="stop-color:#937EC1;stop-opacity:0"/>
	</linearGradient>
	<path class="st36" d="M382,198.5h3.8c1.6,0,3.1,1.4,3.1,3.1v102.6c0,1.6-1.4,3.1-3.1,3.1H382c-1.6,0-3.1-1.4-3.1-3.1V201.6
		C379,199.9,380.3,198.5,382,198.5z"/>
	
		<linearGradient id="SVGID_37_" gradientUnits="userSpaceOnUse" x1="394.6154" y1="359.8135" x2="394.6154" y2="459.3507" gradientTransform="matrix(1 0 0 1 0 -152)">
		<stop  offset="0" style="stop-color:#937EC1;stop-opacity:0.6"/>
		<stop  offset="1" style="stop-color:#937EC1;stop-opacity:0"/>
	</linearGradient>
	<path class="st37" d="M392.7,207.8h3.8c1.6,0,3.1,1.4,3.1,3.1v93.3c0,1.6-1.4,3.1-3.1,3.1h-3.8c-1.6,0-3.1-1.4-3.1-3.1v-93.3
		C389.6,209.2,391,207.8,392.7,207.8z"/>
	
		<linearGradient id="SVGID_38_" gradientUnits="userSpaceOnUse" x1="405.2767" y1="378.3253" x2="405.2767" y2="459.2538" gradientTransform="matrix(1 0 0 1 0 -152)">
		<stop  offset="0" style="stop-color:#937EC1;stop-opacity:0.6"/>
		<stop  offset="1" style="stop-color:#937EC1;stop-opacity:0"/>
	</linearGradient>
	<path class="st38" d="M403.4,226.3h3.8c1.6,0,3.1,1.4,3.1,3.1v74.7c0,1.6-1.4,3.1-3.1,3.1h-3.8c-1.6,0-3.1-1.4-3.1-3.1v-74.7
		C400.4,227.8,401.7,226.3,403.4,226.3z"/>
	
		<linearGradient id="SVGID_39_" gradientUnits="userSpaceOnUse" x1="416.0349" y1="394.3171" x2="416.0349" y2="459.3507" gradientTransform="matrix(1 0 0 1 0 -152)">
		<stop  offset="0" style="stop-color:#937EC1;stop-opacity:0.6"/>
		<stop  offset="1" style="stop-color:#937EC1;stop-opacity:0"/>
	</linearGradient>
	<path class="st39" d="M414.1,242.3h3.8c1.6,0,3.1,1.4,3.1,3.1v58.8c0,1.6-1.4,3.1-3.1,3.1h-3.8c-1.6,0-3.1-1.4-3.1-3.1v-58.8
		C411,243.7,412.4,242.3,414.1,242.3z"/>
</g>
<path class="st40" d="M73,268.8l3.6-3h1.4v12.7h-1.6v-10.4L74,270L73,268.8z M82.5,278.5h-1.6v-13h1.6v4.9c0.3-0.4,0.7-0.8,1.2-1
	c0.5-0.3,1.1-0.4,1.7-0.4c1,0,1.8,0.3,2.5,1c0.7,0.7,1.1,1.6,1.1,2.8v5.5h-1.6v-5.1c0-0.9-0.2-1.6-0.7-2c-0.4-0.5-1-0.8-1.6-0.8
	c-0.8,0-1.4,0.3-1.8,0.8c-0.5,0.5-0.7,1.2-0.7,2L82.5,278.5L82.5,278.5z"/>
<path class="st40" d="M110.7,272.9l-3.5,3.9h5.4v1.6h-7.9v-1.5l4.1-4.4c0.8-0.8,1.3-1.4,1.6-1.8c0.3-0.5,0.5-1,0.5-1.6
	c0-0.6-0.2-1.2-0.7-1.6c-0.4-0.4-1-0.6-1.6-0.6c-1.1,0-2,0.5-3.1,1.5l-1-1.3c1.3-1.2,2.5-1.8,4.1-1.8c1.2,0,2.1,0.4,2.8,1.1
	c0.8,0.7,1.1,1.6,1.1,2.7C112.5,270.4,111.9,271.7,110.7,272.9z M121.3,273.7h1.5v1.5h-1.5v3.2h-1.6v-3.2h-5.9l-0.4-1.1l6.9-8.4h1
	L121.3,273.7L121.3,273.7z M119.6,268.9l-4,4.8h4V268.9z M126.3,278.5h-1.6v-13h1.6v4.9c0.3-0.4,0.7-0.8,1.2-1
	c0.5-0.3,1.1-0.4,1.7-0.4c1,0,1.8,0.3,2.5,1c0.7,0.7,1.1,1.6,1.1,2.8v5.5H131v-5.1c0-0.9-0.2-1.6-0.7-2c-0.4-0.5-1-0.8-1.6-0.8
	c-0.8,0-1.4,0.3-1.8,0.8c-0.5,0.5-0.7,1.2-0.7,2L126.3,278.5L126.3,278.5z"/>
<path class="st40" d="M180.8,268.8l3.6-3h1.4v12.7h-1.6v-10.4l-2.3,1.9L180.8,268.8z M199.2,269c1.1,0,2,0.4,2.7,1.1
	c0.7,0.7,1,1.6,1,2.9v5.4h-1.6v-5.2c0-0.9-0.2-1.6-0.6-1.9c-0.4-0.5-1-0.7-1.6-0.7s-1.3,0.3-1.7,0.8c-0.5,0.5-0.7,1.2-0.7,1.9v5.1
	h-1.6v-5.1c0-0.9-0.2-1.6-0.6-2c-0.4-0.5-1-0.7-1.6-0.7c-0.7,0-1.4,0.3-1.7,0.8c-0.5,0.5-0.7,1.2-0.7,1.9v5.1h-1.6v-9.2h1.6v1.4
	c0.3-0.5,0.7-0.9,1.2-1.2c0.5-0.3,1.1-0.4,1.6-0.4c0.6,0,1.2,0.2,1.7,0.5c0.5,0.3,0.9,0.7,1.2,1.3c0.3-0.5,0.8-1,1.4-1.3
	C197.8,269.2,198.5,269,199.2,269z"/>
<path class="st40" d="M221.7,278.7c-1.4,0-2.7-0.4-3.9-1.3l0.8-1.4c1.2,0.7,2.1,1.1,3.1,1.1c0.8,0,1.5-0.2,1.8-0.6
	c0.5-0.4,0.7-1,0.7-1.6c0-0.7-0.3-1.2-0.8-1.6c-0.5-0.4-1.1-0.6-1.8-0.6H220v-1.6h1.6c0.7,0,1.3-0.2,1.7-0.6s0.7-0.9,0.7-1.5
	c0-0.6-0.2-1.1-0.7-1.5c-0.4-0.4-1-0.6-1.6-0.6c-0.9,0-1.8,0.4-2.8,1.1l-0.9-1.2c0.5-0.5,1.1-0.8,1.6-1.1c0.7-0.3,1.4-0.4,2.1-0.4
	c1.2,0,2,0.3,2.8,1c0.7,0.6,1.1,1.5,1.1,2.4c0,0.7-0.2,1.3-0.6,1.8c-0.4,0.5-1,0.9-1.6,1.1v0.1c0.8,0.2,1.4,0.6,1.8,1.1
	c0.5,0.6,0.7,1.3,0.7,1.9c0,1.1-0.4,1.9-1.3,2.6C224,278.3,222.9,278.7,221.7,278.7z M238.7,269c1.1,0,2,0.4,2.7,1.1
	c0.7,0.7,1,1.6,1,2.9v5.4h-1.6v-5.2c0-0.9-0.2-1.6-0.6-1.9c-0.4-0.5-1-0.7-1.6-0.7c-0.7,0-1.3,0.3-1.7,0.8c-0.5,0.5-0.7,1.2-0.7,1.9
	v5.1h-1.6v-5.1c0-0.9-0.2-1.6-0.6-2c-0.4-0.5-1-0.7-1.6-0.7s-1.4,0.3-1.7,0.8c-0.5,0.5-0.7,1.2-0.7,1.9v5.1h-1.6v-9.2h1.6v1.4
	c0.3-0.5,0.7-0.9,1.2-1.2c0.5-0.3,1.1-0.4,1.6-0.4c0.6,0,1.2,0.2,1.7,0.5c0.5,0.3,0.9,0.7,1.2,1.3c0.3-0.5,0.8-1,1.4-1.3
	C237.4,269.2,238,269,238.7,269z"/>
<path class="st40" d="M263,278.6c-1.5,0-2.6-0.6-3.4-1.7c-0.8-1.2-1.2-2.6-1.2-4.4c0-1.3,0.2-2.3,0.6-3.4c0.4-1.1,1-1.8,1.7-2.5
	c0.8-0.7,1.7-1.1,2.9-1.1c1.3,0,2.3,0.4,3.2,1.1l-0.7,1.3c-0.8-0.6-1.6-0.9-2.4-0.9c-0.8,0-1.6,0.3-2.1,0.9c-0.6,0.6-1,1.3-1.3,1.9
	c-0.2,0.8-0.4,1.5-0.4,2.2v0.1c0.3-0.6,0.7-1.1,1.3-1.4c0.6-0.4,1.3-0.5,1.9-0.5c1.2,0,2.1,0.4,2.8,1.2c0.8,0.8,1.2,1.7,1.2,2.9
	s-0.4,2.2-1.3,3C265.3,278.2,264.3,278.6,263,278.6z M263,277c0.8,0,1.4-0.3,1.8-0.8c0.5-0.6,0.8-1.2,0.8-1.9c0-0.8-0.3-1.4-0.8-1.8
	c-0.5-0.5-1.1-0.8-1.8-0.8s-1.4,0.3-1.8,0.8c-0.5,0.5-0.8,1.2-0.8,1.8c0,0.8,0.3,1.4,0.8,1.9C261.7,276.8,262.3,277,263,277z
	 M279.9,269c1.1,0,2,0.4,2.7,1.1c0.7,0.7,1,1.6,1,2.9v5.4h-1.6v-5.2c0-0.9-0.2-1.6-0.6-1.9c-0.4-0.5-1-0.7-1.6-0.7
	c-0.7,0-1.3,0.3-1.7,0.8c-0.5,0.5-0.7,1.2-0.7,1.9v5.1h-1.6v-5.1c0-0.9-0.2-1.6-0.6-2c-0.4-0.5-1-0.7-1.6-0.7
	c-0.7,0-1.4,0.3-1.7,0.8c-0.5,0.5-0.7,1.2-0.7,1.9v5.1h-1.6v-9.2h1.6v1.4c0.3-0.5,0.7-0.9,1.2-1.2c0.5-0.3,1.1-0.4,1.6-0.4
	c0.6,0,1.2,0.2,1.7,0.5c0.5,0.3,0.9,0.7,1.2,1.3c0.3-0.5,0.8-1,1.4-1.3C278.6,269.2,279.2,269,279.9,269z"/>
<path class="st40" d="M299.8,268.8l3.6-3h1.4v12.7h-1.6v-10.4l-2.3,1.9L299.8,268.8z M311.3,276.1l2.4-6.9h1.8l-3.9,10.2
	c-0.4,1-0.8,1.7-1.4,2.2c-0.5,0.5-1.2,0.7-1.8,0.7c-0.6,0-1.1-0.1-1.5-0.4l0.2-1.5c0.4,0.2,0.8,0.3,1.1,0.3c0.8,0,1.4-0.6,1.8-1.6
	l0.4-0.8l-4-9.1h1.9L311.3,276.1z"/>
<path class="st40" d="M340.9,278.5H339l-1.3-3.3h-4.8l-1.3,3.3h-1.8l5.1-12.7h1L340.9,278.5z M337.2,273.5l-1.8-4.7l-1.8,4.7H337.2z
	 M344,265.5v13h-1.6v-13H344z M348.2,265.5v13h-1.6v-13H348.2z"/>
<path class="st41" d="M142.5,258.1H173c1,0,1.7,0.8,1.7,1.7v27.2c0,1-0.8,1.7-1.7,1.7h-30.5c-1,0-1.7-0.8-1.7-1.7v-27.2
	C140.8,258.9,141.5,258.1,142.5,258.1z"/>
<path class="st42" d="M148,266.9v-1.6h7.9v1L151,278h-1.8l4.8-11.1L148,266.9L148,266.9z M164.7,270.2v-5.1h1.6v13h-1.6v-1.3
	c-0.8,1-1.8,1.6-3.2,1.6s-2.4-0.5-3.3-1.4c-0.9-1-1.3-2-1.3-3.4c0-1.4,0.4-2.5,1.3-3.4c0.9-1,1.9-1.4,3.3-1.4
	C162.8,268.7,163.9,269.2,164.7,270.2z M164.9,273.4c0-1-0.3-1.7-0.9-2.3c-0.6-0.7-1.4-1-2.2-1c-1,0-1.6,0.3-2.2,1
	c-0.6,0.7-0.9,1.5-0.9,2.3c0,1,0.3,1.7,0.9,2.3c0.6,0.7,1.4,1,2.2,1c1,0,1.6-0.3,2.2-1C164.6,275.2,164.9,274.4,164.9,273.4z"/>
</svg>
