<?xml version="1.0" encoding="utf-8"?>
<!-- Generator: Adobe Illustrator 21.1.0, SVG Export Plug-In . SVG Version: 6.00 Build 0)  -->
<svg version="1.1" id="Layer_1" xmlns="http://www.w3.org/2000/svg" xmlns:xlink="http://www.w3.org/1999/xlink" x="0px" y="0px"
	 viewBox="0 0 277 357" style="enable-background:new 0 0 277 357;" xml:space="preserve">
<style type="text/css">
	.st0{fill:#212834;}
	.st1{fill:#FFFFFF;}
	.st2{fill:#1A202C;stroke:#A3A0A0;stroke-width:0.9116;}
	.st3{fill:#212834;stroke:#805AD5;stroke-width:2.5279;}
	.st4{fill:#FFFFFF;filter:url(#Adobe_OpacityMaskFilter);stroke:#FFFFFF;stroke-width:2.6542;}
	.st5{mask:url(#mask0_1_255);}
	.st6{fill:url(#SVGID_1_);}
	.st7{fill:none;stroke:#805AD5;stroke-width:2.5279;}
	.st8{fill:url(#SVGID_2_);}
	.st9{fill:#E3D9FF;}
	.st10{fill:#97C876;}
	.st11{fill:#F2F2F2;}
	.st12{fill:#61E224;}
	.st13{fill:none;stroke:#5939A2;stroke-width:2.5279;}
	.st14{fill:#FF0000;}
	.st15{fill:#D23737;}
</style>
<g>
	<path class="st0" d="M11.5,6.6h253.8c3.7,0,6.7,3,6.7,6.7v335c0,3.7-3,6.7-6.7,6.7H11.5c-3.7,0-6.7-3-6.7-6.7v-335
		C4.8,9.6,7.8,6.6,11.5,6.6z"/>
</g>
<path class="st1" d="M19.8,319.3l2.9-2.4h1.1V327h-1.4v-8.3l-1.8,1.5L19.8,319.3z M27.3,327H26v-10.4h1.3v3.9c0.2-0.3,0.5-0.6,1-0.8
	c0.4-0.2,0.9-0.3,1.4-0.3c0.8,0,1.5,0.3,2.1,0.8c0.6,0.5,0.8,1.3,0.8,2.3v4.4h-1.3v-4.1c0-0.7-0.2-1.2-0.5-1.6
	c-0.3-0.4-0.8-0.6-1.4-0.6c-0.6,0-1.1,0.2-1.4,0.6c-0.4,0.4-0.6,0.9-0.6,1.6V327z"/>
<path class="st1" d="M49.9,322.6l-2.8,3.1h4.3v1.3h-6.3v-1.1l3.2-3.5c0.6-0.6,1-1.1,1.2-1.5c0.2-0.4,0.4-0.8,0.4-1.2
	c0-0.5-0.2-0.9-0.5-1.2c-0.3-0.3-0.8-0.5-1.3-0.5c-0.8,0-1.7,0.4-2.4,1.1l-0.8-1c1-1,2.1-1.4,3.2-1.4c0.9,0,1.7,0.3,2.3,0.8
	c0.6,0.6,0.9,1.3,0.9,2.2C51.3,320.6,50.8,321.6,49.9,322.6z M58.3,323.2h1.1v1.2h-1.1v2.5H57v-2.5h-4.7l-0.3-0.8l5.5-6.7h0.8V323.2
	z M57,319.3l-3.2,3.9H57V319.3z M62.3,327H61v-10.4h1.3v3.9c0.2-0.3,0.5-0.6,1-0.8c0.4-0.2,0.9-0.3,1.4-0.3c0.8,0,1.5,0.3,2.1,0.8
	c0.6,0.5,0.8,1.3,0.8,2.3v4.4h-1.3v-4.1c0-0.7-0.2-1.2-0.5-1.6c-0.3-0.4-0.8-0.6-1.4-0.6c-0.6,0-1.1,0.2-1.4,0.6
	c-0.4,0.4-0.6,0.9-0.6,1.6V327z"/>
<path class="st1" d="M105.9,319.3l2.9-2.4h1.1V327h-1.4v-8.3l-1.8,1.5L105.9,319.3z M120.6,319.4c0.9,0,1.6,0.3,2.1,0.9
	c0.5,0.6,0.8,1.3,0.8,2.3v4.4h-1.3v-4.2c0-0.7-0.2-1.2-0.5-1.6c-0.3-0.4-0.7-0.6-1.3-0.6c-0.6,0-1,0.2-1.4,0.6
	c-0.4,0.4-0.5,0.9-0.5,1.6v4.1h-1.3v-4.1c0-0.7-0.2-1.2-0.5-1.6s-0.8-0.6-1.3-0.6c-0.6,0-1,0.2-1.4,0.6c-0.4,0.4-0.5,0.9-0.5,1.6
	v4.1h-1.3v-7.3h1.3v1.1c0.2-0.4,0.5-0.7,0.9-0.9c0.4-0.2,0.8-0.3,1.3-0.3c0.5,0,1,0.1,1.4,0.4c0.4,0.2,0.7,0.6,0.9,1
	c0.2-0.4,0.6-0.8,1.1-1C119.4,319.6,120,319.4,120.6,319.4z"/>
<path class="st1" d="M138.5,327.1c-1.1,0-2.1-0.3-3.1-1l0.6-1.1c0.9,0.6,1.7,0.8,2.5,0.8c0.6,0,1.1-0.2,1.5-0.5
	c0.4-0.3,0.6-0.7,0.6-1.3c0-0.5-0.2-0.9-0.6-1.3c-0.4-0.3-0.9-0.5-1.5-0.5h-1.2v-1.2h1.2c0.6,0,1-0.2,1.4-0.5
	c0.4-0.3,0.5-0.7,0.5-1.2s-0.2-0.9-0.5-1.1c-0.3-0.3-0.8-0.4-1.3-0.4c-0.7,0-1.4,0.3-2.2,0.9l-0.7-1c0.4-0.4,0.8-0.7,1.4-0.9
	c0.5-0.2,1.1-0.3,1.7-0.3c0.9,0,1.6,0.3,2.2,0.8c0.6,0.5,0.9,1.1,0.9,1.9c0,0.5-0.2,1-0.5,1.4c-0.3,0.4-0.7,0.7-1.3,0.9v0.1
	c0.6,0.1,1.1,0.4,1.4,0.9c0.4,0.4,0.5,1,0.5,1.6c0,0.9-0.3,1.6-1,2.1C140.3,326.8,139.5,327.1,138.5,327.1z M152.1,319.4
	c0.9,0,1.6,0.3,2.1,0.9c0.5,0.6,0.8,1.3,0.8,2.3v4.4h-1.3v-4.2c0-0.7-0.2-1.2-0.5-1.6c-0.3-0.4-0.7-0.6-1.3-0.6
	c-0.6,0-1,0.2-1.4,0.6c-0.4,0.4-0.5,0.9-0.5,1.6v4.1h-1.3v-4.1c0-0.7-0.2-1.2-0.5-1.6s-0.8-0.6-1.3-0.6c-0.6,0-1,0.2-1.4,0.6
	c-0.4,0.4-0.5,0.9-0.5,1.6v4.1h-1.3v-7.3h1.3v1.1c0.2-0.4,0.5-0.7,0.9-0.9c0.4-0.2,0.8-0.3,1.3-0.3c0.5,0,1,0.1,1.4,0.4
	c0.4,0.2,0.7,0.6,0.9,1c0.2-0.4,0.6-0.8,1.1-1C151,319.6,151.6,319.4,152.1,319.4z"/>
<path class="st1" d="M171.5,327.1c-1.2,0-2.1-0.5-2.7-1.4c-0.6-0.9-0.9-2.1-0.9-3.5c0-1,0.1-1.9,0.4-2.7c0.3-0.8,0.8-1.5,1.4-2
	c0.6-0.5,1.4-0.8,2.3-0.8c1,0,1.9,0.3,2.6,0.8l-0.6,1c-0.6-0.5-1.2-0.7-1.9-0.7c-0.6,0-1.2,0.2-1.7,0.7c-0.5,0.4-0.8,1-1,1.6
	c-0.2,0.6-0.3,1.2-0.3,1.8v0.1c0.2-0.5,0.6-0.8,1-1.1c0.5-0.3,1-0.4,1.6-0.4c0.9,0,1.7,0.3,2.3,0.9c0.6,0.6,0.9,1.4,0.9,2.3
	c0,1-0.3,1.8-1,2.4C173.4,326.8,172.5,327.1,171.5,327.1z M171.5,325.9c0.6,0,1.1-0.2,1.5-0.6c0.4-0.4,0.6-0.9,0.6-1.5
	c0-0.6-0.2-1.1-0.6-1.5c-0.4-0.4-0.9-0.6-1.5-0.6c-0.6,0-1.1,0.2-1.5,0.6c-0.4,0.4-0.6,0.9-0.6,1.5c0,0.6,0.2,1.1,0.6,1.5
	C170.4,325.7,170.9,325.9,171.5,325.9z M185,319.4c0.9,0,1.6,0.3,2.1,0.9c0.5,0.6,0.8,1.3,0.8,2.3v4.4h-1.3v-4.2
	c0-0.7-0.2-1.2-0.5-1.6c-0.3-0.4-0.7-0.6-1.3-0.6c-0.6,0-1,0.2-1.4,0.6c-0.4,0.4-0.5,0.9-0.5,1.6v4.1h-1.3v-4.1
	c0-0.7-0.2-1.2-0.5-1.6s-0.8-0.6-1.3-0.6c-0.6,0-1,0.2-1.4,0.6c-0.4,0.4-0.5,0.9-0.5,1.6v4.1h-1.3v-7.3h1.3v1.1
	c0.2-0.4,0.5-0.7,0.9-0.9c0.4-0.2,0.8-0.3,1.3-0.3c0.5,0,1,0.1,1.4,0.4c0.4,0.2,0.7,0.6,0.9,1c0.2-0.4,0.6-0.8,1.1-1
	C183.9,319.6,184.5,319.4,185,319.4z"/>
<path class="st1" d="M200.9,319.3l2.9-2.4h1.1V327h-1.4v-8.3l-1.8,1.5L200.9,319.3z M210.1,325.1l2-5.5h1.4l-3.1,8.2
	c-0.3,0.8-0.7,1.4-1.1,1.8c-0.4,0.4-0.9,0.5-1.5,0.5c-0.5,0-0.9-0.1-1.2-0.3l0.2-1.1c0.3,0.1,0.6,0.2,0.9,0.2c0.6,0,1.1-0.4,1.4-1.3
	l0.3-0.6l-3.2-7.3h1.5L210.1,325.1z"/>
<path class="st1" d="M233.7,327h-1.5l-1-2.6h-3.8l-1,2.6h-1.5l4.1-10.1h0.7L233.7,327z M230.7,323l-1.4-3.8l-1.5,3.8H230.7z
	 M236.2,316.6V327h-1.3v-10.4H236.2z M239.6,316.6V327h-1.3v-10.4H239.6z"/>
<path class="st2" d="M75.2,310.7h24.4c0.8,0,1.4,0.6,1.4,1.4v21.9c0,0.8-0.6,1.4-1.4,1.4H75.2c-0.8,0-1.4-0.6-1.4-1.4V312
	C73.9,311.3,74.5,310.7,75.2,310.7z"/>
<path class="st1" d="M79.5,318.1v-1.2h6.4v0.8l-3.9,9.3h-1.5l3.9-8.9H79.5z M92.9,320.7v-4.1h1.3V327h-1.3v-1
	c-0.6,0.8-1.5,1.2-2.5,1.2c-1.1,0-2-0.4-2.7-1.1c-0.7-0.7-1-1.7-1-2.7c0-1.1,0.3-2,1-2.7c0.7-0.7,1.6-1.1,2.6-1.1
	C91.4,319.4,92.2,319.9,92.9,320.7z M93,323.3c0-0.7-0.2-1.4-0.7-1.9c-0.5-0.5-1.1-0.8-1.8-0.8c-0.7,0-1.4,0.3-1.8,0.8
	c-0.5,0.5-0.7,1.1-0.7,1.9c0,0.7,0.2,1.4,0.7,1.9c0.5,0.5,1.1,0.8,1.8,0.8c0.7,0,1.3-0.3,1.8-0.8C92.8,324.7,93,324,93,323.3z"/>
<circle class="st3" cx="138.3" cy="171.5" r="104.9"/>
<defs>
	<filter id="Adobe_OpacityMaskFilter" filterUnits="userSpaceOnUse" x="15" y="65.3" width="280.2" height="228.2">
		<feColorMatrix  type="matrix" values="1 0 0 0 0  0 1 0 0 0  0 0 1 0 0  0 0 0 1 0"/>
	</filter>
</defs>
<mask maskUnits="userSpaceOnUse" x="15" y="65.3" width="280.2" height="228.2" id="mask0_1_255">
	<circle class="st4" cx="138.3" cy="171.5" r="104.8"/>
</mask>
<g class="st5">
	
		<linearGradient id="SVGID_1_" gradientUnits="userSpaceOnUse" x1="158.9562" y1="192.6655" x2="152.3781" y2="72.259" gradientTransform="matrix(1 0 0 -1 0 358)">
		<stop  offset="0" style="stop-color:#AE89FF"/>
		<stop  offset="0.3681" style="stop-color:#AE8BFE;stop-opacity:0.9894"/>
		<stop  offset="1" style="stop-color:#854EFF;stop-opacity:0.98"/>
	</linearGradient>
	<path class="st6" d="M250.7,170.4c-39.5-2.2-38.2,18.9-77.7,16.8c-39.5-2.2-40.8-23.3-80.3-25.4c-39.5-2.2-38.2,18.9-77.7,16.8
		l-0.1,0l6.3,100.1l273.9,15l-7-112C278.8,176.2,268.7,171.3,250.7,170.4z"/>
	<circle class="st7" cx="138.3" cy="171.5" r="104.9"/>
</g>
<linearGradient id="SVGID_2_" gradientUnits="userSpaceOnUse" x1="146.8145" y1="290.5615" x2="136.7976" y2="169.7881" gradientTransform="matrix(1 0 0 -1 0 358)">
	<stop  offset="0" style="stop-color:#783EF9"/>
	<stop  offset="0.4323" style="stop-color:#8F67EA"/>
	<stop  offset="1" style="stop-color:#905FFF"/>
</linearGradient>
<path class="st8" d="M244.5,171.6c-15.6,0.1-24.1,4.3-32.6,8.5c-9.5,4.7-19.1,9.5-38.8,8.4c-19.8-1.1-30-6.9-40.2-12.7
	c-10.2-5.8-20.4-11.6-40.1-12.7c-19.8-1.1-29.3,3.7-38.9,8.4c-6.2,3.1-12.5,6.2-21.6,7.7c-0.1-2.1-0.2-4.2-0.2-6.3
	c0-58.6,47.5-106.2,106.2-106.2C196.5,66.7,243.8,113.5,244.5,171.6z"/>
<path class="st9" d="M103.6,100.1v-8.7h-3v-1.3h7.3v1.3h-3v8.7H103.6z M108.2,95.1c0-1.5,0.5-2.7,1.5-3.7c1-1,2.2-1.5,3.7-1.5
	c1.4,0,2.6,0.5,3.7,1.5c1,1,1.5,2.2,1.5,3.7c0,1.4-0.5,2.6-1.5,3.7c-1,1-2.3,1.5-3.7,1.5c-1.5,0-2.7-0.5-3.7-1.5
	S108.2,96.6,108.2,95.1z M117.2,95.1c0-1.1-0.4-2-1.1-2.8c-0.7-0.7-1.6-1.1-2.7-1.1c-1,0-1.9,0.4-2.7,1.1c-0.7,0.7-1.1,1.7-1.1,2.7
	c0,1.1,0.4,2,1.1,2.7c0.7,0.7,1.6,1.1,2.7,1.1c1.1,0,2-0.4,2.7-1.1C116.8,97.1,117.2,96.2,117.2,95.1z M120.4,90.1h3.3
	c1,0,1.8,0.3,2.4,0.9c0.6,0.6,0.8,1.3,0.8,2.2c0,0.9-0.3,1.6-0.9,2.2c-0.6,0.6-1.4,0.9-2.5,0.9h-1.9v3.8h-1.4V90.1z M121.8,95h1.9
	c0.6,0,1.1-0.2,1.4-0.5c0.4-0.4,0.5-0.8,0.5-1.3c0-0.5-0.2-0.9-0.5-1.3c-0.3-0.3-0.8-0.5-1.3-0.5h-2.1V95z"/>
<path class="st10" d="M136.5,100.2c-1.5,0-2.7-0.5-3.7-1.5c-1-1-1.4-2.2-1.4-3.7c0-1.5,0.5-2.7,1.5-3.7c1-1,2.2-1.5,3.7-1.5
	c0.8,0,1.6,0.2,2.4,0.5c0.7,0.3,1.4,0.8,1.8,1.3l-1,0.9c-0.8-0.9-1.9-1.4-3.2-1.4c-1.1,0-2,0.4-2.7,1.1c-0.7,0.7-1.1,1.7-1.1,2.8
	c0,1.1,0.4,2,1.1,2.7c0.7,0.7,1.6,1.1,2.7,1.1c0.6,0,1.2-0.1,1.7-0.4c0.6-0.3,1.1-0.6,1.5-1v-2h-3.3v-1.2h4.6v3.8
	C139.8,99.5,138.3,100.2,136.5,100.2z M148.5,93.9v-1.1h1.2v7.3h-1.2v-1c-0.6,0.8-1.5,1.2-2.6,1.2c-1,0-1.9-0.4-2.6-1.1
	c-0.7-0.7-1-1.7-1-2.7c0-1.1,0.3-2,1-2.7c0.7-0.7,1.6-1.1,2.6-1.1C146.9,92.6,147.8,93,148.5,93.9z M148.6,96.4
	c0-0.7-0.2-1.3-0.7-1.8c-0.5-0.5-1.1-0.8-1.8-0.8c-0.7,0-1.3,0.3-1.8,0.8c-0.5,0.5-0.7,1.1-0.7,1.9c0,0.7,0.2,1.3,0.7,1.9
	c0.5,0.5,1,0.8,1.8,0.8c0.7,0,1.3-0.3,1.8-0.8C148.3,97.8,148.6,97.2,148.6,96.4z M152.4,91.8c-0.3,0-0.5-0.1-0.7-0.3
	c-0.2-0.2-0.3-0.4-0.3-0.7c0-0.3,0.1-0.5,0.3-0.6c0.2-0.2,0.4-0.3,0.7-0.3c0.3,0,0.5,0.1,0.6,0.3c0.2,0.2,0.3,0.4,0.3,0.6
	c0,0.3-0.1,0.5-0.3,0.7C152.9,91.7,152.7,91.8,152.4,91.8z M153,92.8v7.3h-1.3v-7.3H153z M156.4,100.1h-1.3v-7.3h1.3v1
	c0.5-0.8,1.2-1.2,2.3-1.2c0.8,0,1.5,0.3,2,0.8c0.6,0.5,0.8,1.3,0.8,2.3v4.4h-1.3v-4c0-0.7-0.2-1.2-0.5-1.6c-0.3-0.4-0.8-0.6-1.3-0.6
	c-0.6,0-1.1,0.2-1.4,0.6c-0.4,0.4-0.6,1-0.6,1.6V100.1z M170.2,96.3c0,0.1,0,0.3,0,0.7h-5.8c0.1,0.6,0.4,1.1,0.8,1.5
	c0.4,0.4,1,0.6,1.7,0.6c0.4,0,0.9-0.1,1.3-0.2c0.5-0.2,0.9-0.4,1.2-0.6l0.6,1c-0.4,0.3-0.8,0.5-1.4,0.7c-0.6,0.2-1.1,0.3-1.7,0.3
	c-0.7,0-1.2-0.1-1.8-0.3c-0.5-0.2-0.9-0.5-1.2-0.9c-0.3-0.4-0.5-0.8-0.7-1.2c-0.2-0.4-0.2-0.9-0.2-1.4c0-1.1,0.3-2,1-2.7
	c0.7-0.7,1.6-1.1,2.7-1.1c1,0,1.9,0.3,2.5,1C169.8,94.3,170.2,95.2,170.2,96.3z M164.3,95.8h4.5c0-0.6-0.3-1.1-0.7-1.5
	c-0.4-0.4-0.9-0.6-1.5-0.6c-0.6,0-1.1,0.2-1.5,0.6C164.7,94.7,164.5,95.2,164.3,95.8z M173,100.1h-1.3v-7.3h1.2v1.1
	c0.4-0.8,1.1-1.3,2.1-1.3c0.3,0,0.5,0,0.9,0.1l-0.1,1.3c-0.3-0.1-0.5-0.1-0.8-0.1c-0.6,0-1.1,0.2-1.4,0.6c-0.4,0.4-0.5,1-0.5,1.7
	V100.1z"/>
<path class="st11" d="M131.3,150.8c-0.7,0-1.3-0.1-1.8-0.4c-0.5-0.3-0.9-0.7-1.2-1.2c-0.6-1-0.9-2.2-0.9-3.5c0-1.3,0.3-2.5,0.9-3.5
	c0.3-0.5,0.7-0.9,1.2-1.2c0.5-0.3,1.1-0.5,1.8-0.5c0.7,0,1.3,0.2,1.8,0.5c0.5,0.3,0.9,0.7,1.2,1.2c0.3,0.5,0.5,1.1,0.6,1.6
	c0.1,0.6,0.2,1.2,0.2,1.8c0,0.6-0.1,1.3-0.2,1.8c-0.1,0.6-0.3,1.1-0.6,1.7c-0.3,0.5-0.7,0.9-1.2,1.2
	C132.6,150.7,131.9,150.8,131.3,150.8z M133.8,145.6c0-1.1-0.2-2.1-0.6-2.8c-0.4-0.7-1.1-1.1-1.9-1.1c-0.9,0-1.5,0.4-1.9,1.1
	c-0.4,0.7-0.6,1.7-0.6,2.8c0,1.2,0.2,2.1,0.6,2.8c0.4,0.7,1.1,1.1,1.9,1.1c0.8,0,1.5-0.4,1.9-1.1
	C133.6,147.7,133.8,146.8,133.8,145.6z M136.2,150c0-0.2,0.1-0.4,0.2-0.6c0.2-0.2,0.4-0.2,0.6-0.2s0.4,0.1,0.6,0.2
	c0.2,0.2,0.3,0.4,0.3,0.6c0,0.3-0.1,0.5-0.3,0.6c-0.2,0.2-0.4,0.2-0.6,0.2s-0.5-0.1-0.6-0.2C136.3,150.5,136.2,150.2,136.2,150z
	 M138.7,141.9v-1.2h6.3v0.8l-3.9,9.2h-1.4l3.8-8.8H138.7z M150.9,147h1.1v1.2h-1.1v2.5h-1.3v-2.5h-4.7l-0.3-0.8l5.5-6.7h0.8V147z
	 M149.6,143.1l-3.2,3.9h3.2V143.1z M157.4,144.7c-0.5,0.5-1.1,0.7-1.8,0.7c-0.7,0-1.3-0.2-1.8-0.7c-0.5-0.5-0.7-1.1-0.7-1.7
	c0-0.7,0.2-1.3,0.7-1.7c0.5-0.5,1.1-0.7,1.8-0.7c0.7,0,1.3,0.2,1.8,0.7c0.5,0.5,0.7,1,0.7,1.7C158.1,143.6,157.8,144.2,157.4,144.7z
	 M155.5,150.7h-1.4l7.4-10h1.4L155.5,150.7z M155.6,141.5c-0.4,0-0.8,0.1-1.1,0.4c-0.3,0.3-0.4,0.6-0.4,1c0,0.4,0.1,0.8,0.4,1.1
	c0.3,0.3,0.6,0.4,1.1,0.4c0.4,0,0.8-0.1,1-0.4c0.3-0.3,0.4-0.6,0.4-1.1c0-0.4-0.1-0.8-0.4-1C156.3,141.6,156,141.5,155.6,141.5z
	 M159.7,150.1c-0.5-0.5-0.7-1-0.7-1.7c0-0.7,0.2-1.3,0.7-1.7c0.5-0.5,1.1-0.7,1.8-0.7c0.7,0,1.3,0.2,1.8,0.7
	c0.5,0.5,0.8,1.1,0.8,1.7c0,0.7-0.3,1.2-0.8,1.7c-0.5,0.5-1.1,0.7-1.8,0.7C160.8,150.8,160.2,150.6,159.7,150.1z M161.5,149.8
	c0.4,0,0.8-0.1,1.1-0.4c0.3-0.3,0.4-0.6,0.4-1c0-0.4-0.1-0.8-0.4-1.1c-0.3-0.3-0.6-0.4-1.1-0.4c-0.4,0-0.8,0.1-1.1,0.4
	c-0.3,0.3-0.4,0.6-0.4,1.1c0,0.4,0.1,0.7,0.4,1C160.7,149.7,161.1,149.8,161.5,149.8z"/>
<path class="st12" d="M117.2,150.5c-0.2,0-0.3-0.1-0.5-0.2c-0.1-0.1-0.2-0.3-0.2-0.5v-7.5l-2.8,2.8c-0.1,0.1-0.1,0.1-0.2,0.1
	c-0.1,0-0.2,0.1-0.2,0.1c-0.1,0-0.2,0-0.2-0.1c-0.1,0-0.2-0.1-0.2-0.1c-0.1-0.1-0.1-0.1-0.1-0.2c0-0.1,0-0.2,0-0.2
	c0-0.1,0-0.2,0-0.2c0-0.1,0.1-0.2,0.1-0.2l3.9-3.9c0.1-0.1,0.1-0.1,0.2-0.1c0.1,0,0.2,0,0.3,0c0.1,0,0.2,0,0.2,0
	c0.1,0,0.2,0.1,0.2,0.1l3.9,3.9c0.1,0.1,0.1,0.1,0.1,0.2c0,0.1,0.1,0.2,0.1,0.2c0,0.1,0,0.2-0.1,0.2c0,0.1-0.1,0.2-0.1,0.2
	c-0.1,0.1-0.3,0.2-0.5,0.2c-0.1,0-0.2,0-0.3-0.1c-0.1,0-0.2-0.1-0.2-0.1l-2.8-2.8v7.5c0,0.2-0.1,0.3-0.2,0.5
	C117.5,150.4,117.3,150.5,117.2,150.5z"/>
<path class="st1" d="M119.9,123.3h-1.5l-1-2.6h-3.8l-1,2.6h-1.5l4-10h0.7L119.9,123.3z M117,119.4l-1.4-3.8l-1.4,3.8H117z
	 M125,115.9c1,0,1.9,0.4,2.6,1.1c0.7,0.7,1,1.6,1,2.7c0,1.1-0.3,2-1,2.7c-0.7,0.7-1.6,1.1-2.6,1.1c-1.1,0-1.9-0.4-2.6-1.2v4h-1.3
	V116h1.3v1.1C123.1,116.3,123.9,115.9,125,115.9z M127.3,119.6c0-0.7-0.2-1.3-0.7-1.8c-0.5-0.5-1.1-0.8-1.8-0.8s-1.3,0.3-1.8,0.8
	c-0.5,0.5-0.7,1.1-0.7,1.8c0,0.7,0.2,1.4,0.7,1.9c0.5,0.5,1.1,0.8,1.8,0.8s1.3-0.3,1.8-0.8C127.1,121,127.3,120.4,127.3,119.6z
	 M136.9,119.5c0,0.1,0,0.3,0,0.7h-5.8c0.1,0.6,0.4,1.1,0.8,1.5c0.4,0.4,1,0.6,1.7,0.6c0.4,0,0.9-0.1,1.3-0.2
	c0.5-0.2,0.9-0.4,1.2-0.6l0.6,1c-0.4,0.3-0.8,0.5-1.4,0.7c-0.6,0.2-1.1,0.3-1.7,0.3c-0.7,0-1.2-0.1-1.8-0.3
	c-0.5-0.2-0.9-0.5-1.2-0.9c-0.3-0.4-0.5-0.8-0.7-1.2c-0.2-0.4-0.2-0.9-0.2-1.4c0-1.1,0.3-2,1-2.7c0.7-0.7,1.6-1.1,2.7-1.1
	c1,0,1.9,0.3,2.5,1C136.6,117.5,136.9,118.4,136.9,119.5z M131.1,119.1h4.5c0-0.6-0.3-1.1-0.7-1.5c-0.4-0.4-0.9-0.6-1.5-0.6
	c-0.6,0-1.1,0.2-1.5,0.6C131.4,118,131.2,118.5,131.1,119.1z M141.8,123.5c-1.1,0-2-0.4-2.8-1.1c-0.7-0.7-1.1-1.6-1.1-2.7
	c0-1.1,0.4-2,1.1-2.7c0.7-0.7,1.7-1.1,2.8-1.1c0.7,0,1.4,0.2,2,0.5c0.6,0.3,1,0.8,1.3,1.4l-1.1,0.6c-0.2-0.4-0.6-0.7-1-1
	c-0.4-0.2-0.8-0.4-1.3-0.4c-0.7,0-1.4,0.2-1.9,0.7c-0.5,0.5-0.7,1.1-0.7,1.9c0,0.7,0.2,1.3,0.7,1.9c0.5,0.5,1.1,0.7,1.8,0.7
	c0.5,0,0.9-0.1,1.3-0.4c0.4-0.2,0.7-0.6,0.9-0.9l1.1,0.6c-0.3,0.6-0.8,1-1.4,1.4C143.2,123.3,142.5,123.5,141.8,123.5z M149.9,123.5
	c-1.1,0-2-0.4-2.7-1.1c-0.7-0.7-1.1-1.6-1.1-2.7c0-1.1,0.4-2,1.1-2.7c0.7-0.7,1.6-1.1,2.7-1.1c1.1,0,2,0.4,2.7,1.1
	c0.7,0.7,1.1,1.6,1.1,2.7c0,1.1-0.4,2-1.1,2.7C151.9,123.1,151,123.5,149.9,123.5z M152.4,119.6c0-0.7-0.2-1.3-0.7-1.8
	c-0.5-0.5-1.1-0.8-1.8-0.8c-0.7,0-1.3,0.3-1.8,0.8c-0.5,0.5-0.7,1.1-0.7,1.8c0,0.7,0.2,1.3,0.7,1.9c0.5,0.5,1.1,0.8,1.8,0.8
	c0.7,0,1.3-0.3,1.8-0.8C152.2,121,152.4,120.4,152.4,119.6z M155.9,115c-0.3,0-0.5-0.1-0.7-0.3c-0.2-0.2-0.3-0.4-0.3-0.7
	c0-0.3,0.1-0.5,0.3-0.6c0.2-0.2,0.4-0.3,0.7-0.3c0.3,0,0.5,0.1,0.6,0.3c0.2,0.2,0.3,0.4,0.3,0.6c0,0.3-0.1,0.5-0.3,0.7
	C156.4,114.9,156.2,115,155.9,115z M156.5,116v7.3h-1.3V116H156.5z M159.9,123.3h-1.3V116h1.3v1c0.5-0.8,1.2-1.2,2.3-1.2
	c0.8,0,1.5,0.3,2,0.8c0.6,0.5,0.8,1.3,0.8,2.3v4.4h-1.3v-4c0-0.7-0.2-1.2-0.5-1.6c-0.3-0.4-0.8-0.6-1.3-0.6c-0.6,0-1.1,0.2-1.4,0.6
	c-0.4,0.4-0.6,1-0.6,1.6V123.3z"/>
<circle class="st13" cx="138.3" cy="171.5" r="104.9"/>
<path class="st11" d="M131.3,253.7c-0.7,0-1.3-0.1-1.8-0.4c-0.5-0.3-0.9-0.7-1.2-1.2c-0.6-1-0.9-2.2-0.9-3.5c0-1.3,0.3-2.5,0.9-3.5
	c0.3-0.5,0.7-0.9,1.2-1.2c0.5-0.3,1.1-0.5,1.8-0.5c0.7,0,1.3,0.2,1.8,0.5c0.5,0.3,0.9,0.7,1.2,1.2c0.3,0.5,0.5,1.1,0.6,1.6
	c0.1,0.6,0.2,1.2,0.2,1.8c0,0.6-0.1,1.3-0.2,1.8c-0.1,0.6-0.3,1.1-0.6,1.7c-0.3,0.5-0.7,0.9-1.2,1.2
	C132.6,253.5,131.9,253.7,131.3,253.7z M133.8,248.5c0-1.1-0.2-2.1-0.6-2.8c-0.4-0.7-1.1-1.1-1.9-1.1c-0.9,0-1.5,0.4-1.9,1.1
	c-0.4,0.7-0.6,1.7-0.6,2.8c0,1.2,0.2,2.1,0.6,2.8c0.4,0.7,1.1,1.1,1.9,1.1c0.8,0,1.5-0.4,1.9-1.1
	C133.6,250.6,133.8,249.7,133.8,248.5z M136.2,252.8c0-0.2,0.1-0.4,0.2-0.6c0.2-0.2,0.4-0.2,0.6-0.2s0.4,0.1,0.6,0.2
	c0.2,0.2,0.3,0.4,0.3,0.6c0,0.3-0.1,0.5-0.3,0.6c-0.2,0.2-0.4,0.2-0.6,0.2s-0.5-0.1-0.6-0.2C136.3,253.3,136.2,253.1,136.2,252.8z
	 M138.7,244.7v-1.2h6.3v0.8l-3.9,9.2h-1.4l3.8-8.8H138.7z M150.9,249.8h1.1v1.2h-1.1v2.5h-1.3V251h-4.7l-0.3-0.8l5.5-6.7h0.8V249.8z
	 M149.6,246l-3.2,3.9h3.2V246z M157.4,247.5c-0.5,0.5-1.1,0.7-1.8,0.7c-0.7,0-1.3-0.2-1.8-0.7c-0.5-0.5-0.7-1.1-0.7-1.7
	c0-0.7,0.2-1.3,0.7-1.7c0.5-0.5,1.1-0.7,1.8-0.7c0.7,0,1.3,0.2,1.8,0.7c0.5,0.5,0.7,1,0.7,1.7C158.1,246.5,157.8,247.1,157.4,247.5z
	 M155.5,253.5h-1.4l7.4-10h1.4L155.5,253.5z M155.6,244.3c-0.4,0-0.8,0.1-1.1,0.4c-0.3,0.3-0.4,0.6-0.4,1c0,0.4,0.1,0.8,0.4,1.1
	c0.3,0.3,0.6,0.4,1.1,0.4c0.4,0,0.8-0.1,1-0.4c0.3-0.3,0.4-0.6,0.4-1.1c0-0.4-0.1-0.8-0.4-1C156.3,244.5,156,244.3,155.6,244.3z
	 M159.7,253c-0.5-0.5-0.7-1-0.7-1.7c0-0.7,0.2-1.3,0.7-1.7c0.5-0.5,1.1-0.7,1.8-0.7c0.7,0,1.3,0.2,1.8,0.7c0.5,0.5,0.8,1.1,0.8,1.7
	c0,0.7-0.3,1.2-0.8,1.7c-0.5,0.5-1.1,0.7-1.8,0.7C160.8,253.7,160.2,253.4,159.7,253z M161.5,252.7c0.4,0,0.8-0.1,1.1-0.4
	c0.3-0.3,0.4-0.6,0.4-1c0-0.4-0.1-0.8-0.4-1.1c-0.3-0.3-0.6-0.4-1.1-0.4c-0.4,0-0.8,0.1-1.1,0.4c-0.3,0.3-0.4,0.6-0.4,1.1
	c0,0.4,0.1,0.7,0.4,1C160.7,252.5,161.1,252.7,161.5,252.7z"/>
<path class="st14" d="M117.2,242.9c-0.2,0-0.3,0.1-0.5,0.2s-0.2,0.3-0.2,0.5v7.5l-2.8-2.8c-0.1-0.1-0.1-0.1-0.2-0.1
	c-0.1,0-0.2,0-0.2,0c-0.1,0-0.2,0-0.2,0c-0.1,0-0.2,0.1-0.2,0.1c-0.1,0.1-0.1,0.1-0.1,0.2c0,0.1,0,0.2,0,0.2c0,0.1,0,0.2,0,0.2
	c0,0.1,0.1,0.2,0.1,0.2l3.9,3.9c0.1,0.1,0.1,0.1,0.2,0.1c0.1,0,0.2,0.1,0.3,0.1c0.1,0,0.2,0,0.2-0.1c0.1,0,0.2-0.1,0.2-0.1l3.9-3.9
	c0.1-0.1,0.1-0.1,0.1-0.2c0-0.1,0.1-0.2,0.1-0.2c0-0.1,0-0.2-0.1-0.2c0-0.1-0.1-0.2-0.1-0.2c-0.1-0.1-0.3-0.2-0.5-0.2
	c-0.1,0-0.2,0-0.3,0c-0.1,0-0.2,0.1-0.2,0.1l-2.8,2.8v-7.5c0-0.2-0.1-0.3-0.2-0.5S117.3,242.9,117.2,242.9z"/>
<path class="st1" d="M104.3,202.9v-8.7h-3v-1.3h7.3v1.3h-3v8.7H104.3z M109,198c0-1.5,0.5-2.7,1.5-3.7c1-1,2.2-1.5,3.7-1.5
	c1.4,0,2.6,0.5,3.7,1.5c1,1,1.5,2.2,1.5,3.7c0,1.4-0.5,2.6-1.5,3.7c-1,1-2.3,1.5-3.7,1.5c-1.5,0-2.7-0.5-3.7-1.5
	C109.5,200.6,109,199.4,109,198z M117.9,197.9c0-1.1-0.4-2-1.1-2.8c-0.7-0.7-1.6-1.1-2.7-1.1c-1,0-1.9,0.4-2.7,1.1
	c-0.7,0.7-1.1,1.7-1.1,2.7c0,1.1,0.4,2,1.1,2.7c0.7,0.7,1.6,1.1,2.7,1.1c1.1,0,2-0.4,2.7-1.1C117.5,199.9,117.9,199,117.9,197.9z
	 M121.2,192.9h3.3c1,0,1.8,0.3,2.4,0.9c0.6,0.6,0.8,1.3,0.8,2.2c0,0.9-0.3,1.6-0.9,2.2c-0.6,0.6-1.4,0.9-2.5,0.9h-1.9v3.8h-1.4
	V192.9z M122.5,197.8h1.9c0.6,0,1.1-0.2,1.4-0.5c0.4-0.4,0.5-0.8,0.5-1.3c0-0.5-0.2-0.9-0.5-1.3c-0.3-0.3-0.8-0.5-1.3-0.5h-2.1
	V197.8z"/>
<path class="st15" d="M139.1,202.9h-6.7v-10h1.4v8.7h5.4V202.9z M143.5,203.1c-1.1,0-2-0.4-2.7-1.1c-0.7-0.7-1.1-1.6-1.1-2.7
	c0-1.1,0.4-2,1.1-2.7c0.7-0.7,1.6-1.1,2.7-1.1c1.1,0,2,0.4,2.7,1.1c0.7,0.7,1.1,1.6,1.1,2.7c0,1.1-0.4,2-1.1,2.7
	C145.5,202.7,144.6,203.1,143.5,203.1z M146,199.3c0-0.7-0.2-1.3-0.7-1.8c-0.5-0.5-1.1-0.8-1.8-0.8c-0.7,0-1.3,0.3-1.8,0.8
	c-0.5,0.5-0.7,1.1-0.7,1.8c0,0.7,0.2,1.3,0.7,1.9c0.5,0.5,1.1,0.8,1.8,0.8c0.7,0,1.3-0.3,1.8-0.8C145.7,200.6,146,200,146,199.3z
	 M152.2,203.1c-1.1,0-2-0.4-2.7-1.1c-0.7-0.7-1.1-1.6-1.1-2.7c0-1.1,0.4-2,1.1-2.7c0.7-0.7,1.6-1.1,2.7-1.1c1.1,0,2,0.4,2.7,1.1
	c0.7,0.7,1.1,1.6,1.1,2.7c0,1.1-0.4,2-1.1,2.7C154.2,202.7,153.3,203.1,152.2,203.1z M154.7,199.3c0-0.7-0.2-1.3-0.7-1.8
	c-0.5-0.5-1.1-0.8-1.8-0.8c-0.7,0-1.3,0.3-1.8,0.8c-0.5,0.5-0.7,1.1-0.7,1.8c0,0.7,0.2,1.3,0.7,1.9c0.5,0.5,1.1,0.8,1.8,0.8
	c0.7,0,1.3-0.3,1.8-0.8C154.4,200.6,154.7,200,154.7,199.3z M159.6,203.1c-0.6,0-1.1-0.1-1.6-0.4c-0.5-0.3-0.9-0.7-1.1-1.2l0.9-0.7
	c0.2,0.4,0.5,0.7,0.8,0.9c0.3,0.2,0.7,0.3,1,0.3c0.4,0,0.7-0.1,0.9-0.3c0.2-0.2,0.4-0.4,0.4-0.7c0-0.4-0.2-0.7-0.7-0.9
	c-0.1-0.1-0.4-0.2-0.9-0.4c-0.5-0.2-0.7-0.3-0.9-0.4c-0.7-0.4-1.1-1-1.1-1.8c0-0.6,0.2-1.1,0.6-1.4c0.4-0.4,1-0.6,1.7-0.6
	c0.5,0,0.9,0.1,1.3,0.3c0.4,0.2,0.7,0.5,1,0.9l-0.8,0.8c-0.4-0.6-0.9-0.8-1.6-0.8c-0.3,0-0.6,0.1-0.8,0.3c-0.2,0.2-0.3,0.4-0.3,0.6
	c0,0.4,0.2,0.7,0.6,0.9l0.8,0.4c0.4,0.2,0.8,0.3,1,0.4c0.8,0.4,1.2,1,1.2,1.8c0,0.6-0.2,1.1-0.7,1.6
	C160.9,202.9,160.3,203.1,159.6,203.1z M170.4,199.2c0,0.1,0,0.3,0,0.7h-5.8c0.1,0.6,0.4,1.1,0.8,1.5s1,0.6,1.7,0.6
	c0.4,0,0.9-0.1,1.3-0.2c0.5-0.2,0.9-0.4,1.2-0.6l0.6,1c-0.4,0.3-0.8,0.5-1.4,0.7c-0.6,0.2-1.1,0.3-1.7,0.3c-0.7,0-1.2-0.1-1.8-0.3
	c-0.5-0.2-0.9-0.5-1.2-0.9c-0.3-0.4-0.5-0.8-0.7-1.2c-0.2-0.4-0.2-0.9-0.2-1.4c0-1.1,0.3-2,1-2.7c0.7-0.7,1.6-1.1,2.7-1.1
	c1,0,1.9,0.3,2.5,1C170.1,197.1,170.4,198,170.4,199.2z M164.6,198.7h4.5c0-0.6-0.3-1.1-0.7-1.5c-0.4-0.4-0.9-0.6-1.5-0.6
	c-0.6,0-1.1,0.2-1.5,0.6C165,197.6,164.7,198.1,164.6,198.7z M173.2,202.9h-1.3v-7.3h1.2v1.1c0.4-0.8,1.1-1.3,2.1-1.3
	c0.3,0,0.5,0,0.9,0.1l-0.1,1.3c-0.3-0.1-0.5-0.1-0.8-0.1c-0.6,0-1.1,0.2-1.4,0.6c-0.4,0.4-0.5,1-0.5,1.7V202.9z"/>
<path class="st1" d="M119.9,226.1h-1.5l-1-2.6h-3.8l-1,2.6h-1.5l4-10h0.7L119.9,226.1z M117,222.3l-1.4-3.8l-1.4,3.8H117z
	 M125,218.7c1,0,1.9,0.4,2.6,1.1c0.7,0.7,1,1.6,1,2.7c0,1.1-0.3,2-1,2.7c-0.7,0.7-1.6,1.1-2.6,1.1c-1.1,0-1.9-0.4-2.6-1.2v4h-1.3
	v-10.2h1.3v1.1C123.1,219.1,123.9,218.7,125,218.7z M127.3,222.5c0-0.7-0.2-1.3-0.7-1.8c-0.5-0.5-1.1-0.8-1.8-0.8s-1.3,0.3-1.8,0.8
	c-0.5,0.5-0.7,1.1-0.7,1.8c0,0.7,0.2,1.4,0.7,1.9c0.5,0.5,1.1,0.8,1.8,0.8s1.3-0.3,1.8-0.8C127.1,223.9,127.3,223.2,127.3,222.5z
	 M136.9,222.4c0,0.1,0,0.3,0,0.7h-5.8c0.1,0.6,0.4,1.1,0.8,1.5c0.4,0.4,1,0.6,1.7,0.6c0.4,0,0.9-0.1,1.3-0.2
	c0.5-0.2,0.9-0.4,1.2-0.6l0.6,1c-0.4,0.3-0.8,0.5-1.4,0.7c-0.6,0.2-1.1,0.3-1.7,0.3c-0.7,0-1.2-0.1-1.8-0.3
	c-0.5-0.2-0.9-0.5-1.2-0.9c-0.3-0.4-0.5-0.8-0.7-1.2c-0.2-0.4-0.2-0.9-0.2-1.4c0-1.1,0.3-2,1-2.7c0.7-0.7,1.6-1.1,2.7-1.1
	c1,0,1.9,0.3,2.5,1C136.6,220.4,136.9,221.2,136.9,222.4z M131.1,221.9h4.5c0-0.6-0.3-1.1-0.7-1.5c-0.4-0.4-0.9-0.6-1.5-0.6
	c-0.6,0-1.1,0.2-1.5,0.6C131.4,220.8,131.2,221.3,131.1,221.9z M141.8,226.3c-1.1,0-2-0.4-2.8-1.1c-0.7-0.7-1.1-1.6-1.1-2.7
	c0-1.1,0.4-2,1.1-2.7c0.7-0.7,1.7-1.1,2.8-1.1c0.7,0,1.4,0.2,2,0.5c0.6,0.3,1,0.8,1.3,1.4l-1.1,0.6c-0.2-0.4-0.6-0.7-1-1
	c-0.4-0.2-0.8-0.4-1.3-0.4c-0.7,0-1.4,0.2-1.9,0.7c-0.5,0.5-0.7,1.1-0.7,1.9c0,0.7,0.2,1.3,0.7,1.9c0.5,0.5,1.1,0.7,1.8,0.7
	c0.5,0,0.9-0.1,1.3-0.4c0.4-0.2,0.7-0.6,0.9-0.9l1.1,0.6c-0.3,0.6-0.8,1-1.4,1.4C143.2,226.1,142.5,226.3,141.8,226.3z M149.9,226.3
	c-1.1,0-2-0.4-2.7-1.1c-0.7-0.7-1.1-1.6-1.1-2.7s0.4-2,1.1-2.7c0.7-0.7,1.6-1.1,2.7-1.1c1.1,0,2,0.4,2.7,1.1
	c0.7,0.7,1.1,1.6,1.1,2.7c0,1.1-0.4,2-1.1,2.7C151.9,225.9,151,226.3,149.9,226.3z M152.4,222.5c0-0.7-0.2-1.3-0.7-1.8
	c-0.5-0.5-1.1-0.8-1.8-0.8c-0.7,0-1.3,0.3-1.8,0.8c-0.5,0.5-0.7,1.1-0.7,1.8c0,0.7,0.2,1.3,0.7,1.9c0.5,0.5,1.1,0.8,1.8,0.8
	c0.7,0,1.3-0.3,1.8-0.8C152.2,223.8,152.4,223.2,152.4,222.5z M155.9,217.9c-0.3,0-0.5-0.1-0.7-0.3c-0.2-0.2-0.3-0.4-0.3-0.7
	c0-0.3,0.1-0.5,0.3-0.6c0.2-0.2,0.4-0.3,0.7-0.3c0.3,0,0.5,0.1,0.6,0.3c0.2,0.2,0.3,0.4,0.3,0.6c0,0.3-0.1,0.5-0.3,0.7
	C156.4,217.8,156.2,217.9,155.9,217.9z M156.5,218.9v7.3h-1.3v-7.3H156.5z M159.9,226.1h-1.3v-7.3h1.3v1c0.5-0.8,1.2-1.2,2.3-1.2
	c0.8,0,1.5,0.3,2,0.8c0.6,0.5,0.8,1.3,0.8,2.3v4.4h-1.3v-4c0-0.7-0.2-1.2-0.5-1.6c-0.3-0.4-0.8-0.6-1.3-0.6c-0.6,0-1.1,0.2-1.4,0.6
	c-0.4,0.4-0.6,1-0.6,1.6V226.1z"/>
</svg>
