<svg width="15" height="15" viewBox="0 0 15 15" fill="none" xmlns="http://www.w3.org/2000/svg">
<path d="M10.5151 10.2678C11.3798 9.24089 11.8536 7.94126 11.8527 6.59872C11.8527 5.45836 11.5146 4.34362 10.881 3.39545C10.2475 2.44728 9.34698 1.70827 8.29343 1.27187C7.23988 0.835476 6.08058 0.721295 4.96214 0.943767C3.84369 1.16624 2.81634 1.71537 2.00998 2.52173C1.20363 3.32808 0.654498 4.35544 0.432025 5.47388C0.209553 6.59232 0.323734 7.75162 0.760129 8.80517C1.19652 9.85872 1.93553 10.7592 2.8837 11.3928C3.83188 12.0263 4.94662 12.3645 6.08698 12.3645C7.42952 12.3654 8.72915 11.8916 9.75608 11.0268L13.7323 14.9852L14.4735 14.2441L10.5151 10.2678ZM6.08698 11.3161C5.15396 11.3161 4.24189 11.0395 3.46612 10.5211C2.69034 10.0028 2.0857 9.266 1.72865 8.404C1.3716 7.542 1.27818 6.59349 1.4602 5.6784C1.64222 4.76331 2.09151 3.92274 2.75126 3.263C3.411 2.60325 4.25156 2.15396 5.16665 1.97194C6.08174 1.78992 7.03026 1.88334 7.89226 2.24039C8.75425 2.59744 9.49101 3.20208 10.0094 3.97786C10.5277 4.75364 10.8044 5.6657 10.8044 6.59872C10.803 7.84943 10.3056 9.04852 9.42117 9.93291C8.53678 10.8173 7.33769 11.3148 6.08698 11.3161Z" fill="#F2F2F2"/>
</svg>
