<?xml version="1.0" encoding="utf-8"?>
<!-- Generator: Adobe Illustrator 21.1.0, SVG Export Plug-In . SVG Version: 6.00 Build 0)  -->
<svg version="1.1" id="Layer_1" xmlns="http://www.w3.org/2000/svg" xmlns:xlink="http://www.w3.org/1999/xlink" x="0px" y="0px"
	 viewBox="0 0 100 49" style="enable-background:new 0 0 100 49;" xml:space="preserve">
<style type="text/css">
	.st0{fill:url(#SVGID_1_);fill-opacity:0.12;}
	.st1{fill:none;stroke:#61E224;stroke-width:0.7622;stroke-linecap:round;}
</style>
<linearGradient id="SVGID_1_" gradientUnits="userSpaceOnUse" x1="49.7216" y1="49.8672" x2="49.7216" y2="1.984" gradientTransform="matrix(1 0 0 -1 0 50)">
	<stop  offset="0" style="stop-color:#49D76C"/>
	<stop  offset="0.901" style="stop-color:#FFFFFF"/>
</linearGradient>
<path class="st0" d="M16.1,8.8L0,46.9h2L99.4,48V0.2L94.6,4c-1-0.9-3.4-2.9-5.1-3.8C87.9-0.6,79.1,4,74.9,6.4c-2-0.5-6.8-1.3-10.7,0
	c-4.8,1.6-8,6.4-9.3,2.4c-1.3-4-6.9,0-9.6,0c-2.1,0-9.3-1.6-12.5-2.4c-2,1.8-6.8,5.3-10.4,4.8C18.7,10.8,16.7,9.5,16.1,8.8z"/>
<path class="st1" d="M0.2,46.6L16.4,8.8c0.5,0.6,2.5,2,6.2,2.4c3.6,0.4,8.5-3,10.4-4.8c3.3,0.8,10.4,2.4,12.6,2.4c2.7,0,8.3-4,9.6,0
	c1.3,4,4.6-0.8,9.4-2.4c3.9-1.3,8.8-0.5,10.7,0c4.2-2.4,13-7,14.7-6.2c1.7,0.9,4.1,2.9,5.1,3.8l4.2-3.8"/>
</svg>
